<?xml version="1.0" encoding="utf-8"?>
<!-- Generator: Adobe Illustrator 22.1.0, SVG Export Plug-In . SVG Version: 6.00 Build 0)  -->
<svg version="1.1" id="Layer_1" xmlns="http://www.w3.org/2000/svg" xmlns:xlink="http://www.w3.org/1999/xlink" x="0px" y="0px"
	 viewBox="0 0 418.1 152.2" style="enable-background:new 0 0 418.1 152.2;" xml:space="preserve">
<style type="text/css">
	.st0{fill:#10262D;}
	.st1{fill:#275365;}
</style>
<path class="st0" d="M115.4,130.3c-2.7,0-5.3,0.1-8,0c-4.1-0.2-4.5-0.9-2.2-4.4c8.1-12.8,16.3-25.6,24.3-38.4
	c2.9-4.6,7.7-9.4,7.8-14.1c0.1-4.7-4.7-9.6-7.4-14.3c-2-3.5-4.1-6.9-6.3-10.2c-1.9-2.7-1.1-4.4,1.5-6.1c4.5-2.8,9-5.8,13.3-8.8
	c2.6-1.8,4.4-1.6,6.1,1.2c7.3,11.8,14.8,23.4,21.9,35.2c0.9,1.4,0.8,4.4-0.1,5.8c-9.2,14.9-18.5,29.7-28.1,44.3
	C132.7,128.9,128.8,130.3,115.4,130.3z"/>
<path class="st0" d="M50.3,16c2.2,0,4.3-0.1,6.5,0c5.2,0.1,5.6,0.9,2.8,5.5c-6.7,10.8-13.4,21.5-20.1,32.2c-3.1,4.9-5.9,10-9.3,14.8
	c-2.4,3.4-2.1,6.1,0.1,9.5c4.1,6.1,7.6,12.5,11.7,18.6c2.3,3.5,1.7,5.5-1.8,7.6c-4.3,2.5-8.5,5.3-12.5,8.2c-2.9,2.1-4.5,1.4-6.3-1.5
	C14.8,99.4,8,88.1,1.2,76.9c-1.6-2.6-1.7-4.7-0.1-7.4c8.6-14.1,17-28.2,25.5-42.3C32.1,18.2,39.8,14.2,50.3,16z"/>
<g id="Faxtsm.tif">
	<g>
		<path class="st1" d="M97.8,25.7c5.9,3.1,11.5,6,17.4,9.1c-8.8,20.9-19.4,41.2-31,61c-1-0.4-1.6-0.6-2.2-0.9
			c-4.8-2.5-9.5-5.1-14.4-7.5c-1.6-0.8-1.9-1.7-1.1-3.2c5.5-11,10.7-22.1,16.4-32.9c4.1-7.9,8.8-15.5,13.3-23.2
			C96.8,27.4,97.3,26.6,97.8,25.7z"/>
		<path class="st1" d="M58.8,102.8c5.4,2.8,10.4,5.4,15.8,8.2c-1.1,1.6-2.1,3.3-3.2,4.9c-3.8,5.7-3.8,5.7-2,12.3
			c0.4,1.3,0.7,2.7,0.8,4.1c0.3,5.2-2.1,9.2-7,10.8c-9.2,3.1-18.5,6-27.8,8.9c-1.3,0.4-2.5,0.3-3.2-1c-0.7-1.3-0.1-2.2,0.8-3.3
			c1.9-2.5,4-5,5.5-7.7c1.7-3.2,1.8-6.7,0.8-10.2c-0.2-0.6-0.4-1.3-0.5-1.9c-1.2-6,0.7-9.6,6.4-11.8c2.7-1,5.6-1.6,8.4-2.6
			c0.7-0.2,1.4-1,1.7-1.7C56.5,109,57.6,106,58.8,102.8z"/>
		<path class="st1" d="M122.1,18c-4.9-2.6-9.5-5-14.3-7.5c0.4-0.7,0.8-1.6,1.4-2.3c1.5-2.2,3-4.5,4.5-6.7c0.9-1.3,2.1-1.8,3.6-1.1
			c2.6,1.3,5.1,2.6,7.6,3.9c1.1,0.6,1.7,1.7,1.2,2.9C124.9,10.8,123.5,14.3,122.1,18z"/>
		<path class="st1" d="M81.8,100c-1.4,2.2-2.9,4.7-4.5,7.2c-1-0.4-1.8-0.6-2.5-1c-4.1-2.1-8.3-4.3-12.4-6.4
			c-1.5-0.7-1.8-1.6-1.1-3.1c1-2,1.8-4.2,2.8-6.4C69.9,93.6,75.6,96.7,81.8,100z"/>
		<path class="st1" d="M117.2,30.3c-5.7-3-11.1-5.8-16.7-8.7c1.3-2.1,2.7-4.4,4.2-6.6c0.2-0.3,1.1-0.6,1.4-0.4
			c4.8,2.4,9.5,4.9,14.5,7.5C119.4,25,118.3,27.6,117.2,30.3z"/>
	</g>
</g>
<g>
	<path class="st0" d="M193.9,81.6h12.4v5.8h-19.6V37.3h7.2V81.6z"/>
	<path class="st0" d="M217.4,37.3h7.2v50.1h-7.2V37.3z"/>
	<path class="st0" d="M254,79.3V67c0-1-0.1-1.6-0.4-1.9c-0.3-0.3-0.9-0.4-1.9-0.4h-5.9c-4.9,0-7.3-2.4-7.3-7.1V44.4
		c0-4.7,2.5-7,7.4-7h7.8c5,0,7.4,2.3,7.4,7v7.4h-7.3v-6.2c0-1-0.2-1.6-0.5-1.9c-0.3-0.3-1-0.4-1.9-0.4h-3.4c-1,0-1.6,0.1-1.9,0.4
		c-0.3,0.3-0.5,0.9-0.5,1.9v11.1c0,1,0.2,1.6,0.5,1.9c0.3,0.3,1,0.4,1.9,0.4h5.8c4.9,0,7.4,2.3,7.4,7v14.4c0,4.7-2.5,7-7.5,7H246
		c-5,0-7.4-2.3-7.4-7V73h7.3v6.2c0,1,0.2,1.6,0.5,1.9s1,0.4,1.9,0.4h3.4c1,0,1.6-0.1,1.9-0.4C253.8,80.8,254,80.2,254,79.3z"/>
	<path class="st0" d="M292.8,87.4l-2-11.6h-10.6l-1.8,11.6h-7.2l8.9-50.1h10.5l9.5,50.1H292.8z M281.1,70h8.7l-4.6-26.4L281.1,70z"
		/>
	<path class="st0" d="M329.1,37.3h6.6v50.1h-7.3l-10.6-36.2v36.2h-6.6V37.3h7.6l10.2,35.1V37.3z"/>
	<path class="st0" d="M367.9,37.3h6.6v50.1h-7.3l-10.6-36.2v36.2H350V37.3h7.6l10.2,35.1V37.3z"/>
	<path class="st0" d="M396.1,81.6h14.5v5.8h-21.8V37.3H410v5.8h-13.9v15.4h11.5v5.8h-11.5V81.6z"/>
</g>
<g>
	<path class="st1" d="M193.1,104.3h-1.7V102c0-0.3,0-0.5-0.1-0.6s-0.3-0.1-0.6-0.1h-1.4c-0.3,0-0.5,0-0.6,0.1s-0.1,0.3-0.1,0.6V113
		c0,0.3,0,0.5,0.1,0.6c0.1,0.1,0.3,0.2,0.6,0.2h1.4c0.3,0,0.5,0,0.6-0.2c0.1-0.1,0.1-0.3,0.1-0.6v-2.3h1.7v2.6c0,1.3-0.7,2-2,2h-2.4
		c-1.3,0-2-0.7-2-2v-11.6c0-1.3,0.7-2,2-2h2.4c1.3,0,2,0.7,2,2V104.3z"/>
	<path class="st1" d="M202.2,108.8v6.5h-1.7V99.7h4.5c1.3,0,2,0.7,2,2v5.1c0,1.2-0.5,1.8-1.5,2l2.3,6.5H206l-2.3-6.5H202.2z
		 M202.2,101.2v6.1h2.3c0.3,0,0.5,0,0.6-0.1c0.1-0.1,0.1-0.3,0.1-0.6V102c0-0.3,0-0.5-0.1-0.6c-0.1-0.1-0.3-0.1-0.6-0.1H202.2z"/>
	<path class="st1" d="M216.3,113.8h4.3v1.5h-6V99.7h5.8v1.5h-4.1v5.2h3.4v1.5h-3.4V113.8z"/>
	<path class="st1" d="M232.6,115.3l-0.7-4h-3.1l-0.6,4h-1.7l2.4-15.5h2.7l2.7,15.5H232.6z M229,109.8h2.7l-1.5-8.9L229,109.8z"/>
	<path class="st1" d="M246.5,99.7v1.5H244v14.1h-1.7v-14.1h-2.5v-1.5H246.5z"/>
	<path class="st1" d="M253.3,99.7h1.7v15.5h-1.7V99.7z"/>
	<path class="st1" d="M267.7,99.7h1.7l-2.5,15.5h-2.7l-2.5-15.5h1.7l2.1,14.3L267.7,99.7z"/>
	<path class="st1" d="M277.7,113.8h4.3v1.5h-6V99.7h5.8v1.5h-4.1v5.2h3.4v1.5h-3.4V113.8z"/>
	<path class="st1" d="M297.1,99.7h4.9c1.3,0,2,0.7,2,2v11.6c0,1.3-0.7,2-2,2h-4.9V99.7z M302.2,113v-11c0-0.3,0-0.5-0.1-0.6
		c-0.1-0.1-0.3-0.1-0.6-0.1h-2.7v12.6h2.7c0.3,0,0.5,0,0.6-0.1C302.2,113.6,302.2,113.3,302.2,113z"/>
	<path class="st1" d="M313.3,113.8h4.3v1.5h-6V99.7h5.8v1.5h-4.1v5.2h3.4v1.5h-3.4V113.8z"/>
	<path class="st1" d="M329.2,99.7h1.7l-2.5,15.5h-2.7l-2.5-15.5h1.7l2.1,14.3L329.2,99.7z"/>
	<path class="st1" d="M339.2,113.8h4.3v1.5h-6V99.7h5.8v1.5h-4.1v5.2h3.4v1.5h-3.4V113.8z"/>
	<path class="st1" d="M352,113.8h3.6v1.5h-5.3V99.7h1.7V113.8z"/>
	<path class="st1" d="M363.9,99.7h2.6c1.3,0,2,0.7,2,2v11.6c0,1.3-0.7,2-2,2h-2.6c-1.3,0-2-0.7-2-2v-11.6
		C362,100.4,362.6,99.7,363.9,99.7z M366.8,113v-11c0-0.3,0-0.5-0.1-0.6c-0.1-0.1-0.3-0.1-0.6-0.1h-1.6c-0.3,0-0.5,0-0.6,0.1
		c-0.1,0.1-0.1,0.3-0.1,0.6v11c0,0.3,0,0.5,0.1,0.6c0.1,0.1,0.3,0.1,0.6,0.1h1.6c0.3,0,0.5,0,0.6-0.1
		C366.7,113.6,366.8,113.3,366.8,113z"/>
	<path class="st1" d="M376.1,99.7h4.5c1.3,0,2,0.7,2,2v5.3c0,1.3-0.7,2-2,2h-2.8v6.2h-1.7V99.7z M380.9,106.8V102
		c0-0.3,0-0.5-0.1-0.6s-0.3-0.1-0.6-0.1h-2.3v6.3h2.3c0.3,0,0.5,0,0.6-0.1S380.9,107.1,380.9,106.8z"/>
	<path class="st1" d="M391.4,113.8h4.3v1.5h-6V99.7h5.8v1.5h-4.1v5.2h3.4v1.5h-3.4V113.8z"/>
	<path class="st1" d="M404.3,108.8v6.5h-1.7V99.7h4.5c1.3,0,2,0.7,2,2v5.1c0,1.2-0.5,1.8-1.5,2l2.3,6.5H408l-2.3-6.5H404.3z
		 M404.3,101.2v6.1h2.3c0.3,0,0.5,0,0.6-0.1s0.1-0.3,0.1-0.6V102c0-0.3,0-0.5-0.1-0.6s-0.3-0.1-0.6-0.1H404.3z"/>
</g>
</svg>
