<?xml version="1.0" encoding="utf-8"?>
<!-- Generator: Adobe Illustrator 22.1.0, SVG Export Plug-In . SVG Version: 6.00 Build 0)  -->
<svg version="1.1" id="Layer_1" xmlns="http://www.w3.org/2000/svg" xmlns:xlink="http://www.w3.org/1999/xlink" x="0px" y="0px"
	 viewBox="0 0 186 214.8" style="enable-background:new 0 0 186 214.8;" xml:space="preserve">
<style type="text/css">
	.st0{fill:#C4C4C4;}
</style>
<g>
	<g>
		<path class="st0" d="M93,11.5l83,47.9v95.8l-83,47.9l-83-47.9V59.5L93,11.5 M93,0L0,53.7v107.4l93,53.7l93-53.7V53.7L93,0L93,0z"
			/>
	</g>
	<g>
		<path class="st0" d="M98.7,109.8c-4.4-0.6-9-0.1-13.6-0.1c0,5.1,0,10.4,0,15.4c4.4,0,8.6,0.3,12.7-0.1c4.2-0.3,6.4-3,6.6-7.4
			C104.6,114,103.7,110.5,98.7,109.8z"/>
		<path class="st0" d="M128,53.4H59c-9.3,0-17,7.6-17,17v69c0,9.3,7.7,17,17,17h69c9.3,0,17-7.7,17-17v-69
			C145,61,137.3,53.4,128,53.4z M110.3,135c-3.5,1.1-7.3,1.9-10.9,2c-9.9,0.3-19.9,0.1-29.8,0.1c-0.4,0-0.7,0-1.4-0.1
			c0-0.8,0-1.5,0-2.2c0-19.9,0-39.8,0-59.7c0-1.8,0.4-2.5,2.4-2.5c7.7,0.1,15.3,0,23,0.1c5.5,0.1,11,0.4,16.2,2.5
			c6,2.4,9.2,7,9.3,13.4c0.1,7.2-1.5,10.2-7.5,13.9c1.7,1.1,3.5,2.1,5.1,3.4C124,112.1,124.6,130.5,110.3,135z"/>
		<path class="st0" d="M96.7,97.2c3.3-0.3,5-2.6,5.2-6c0.1-3.2-1.4-5.8-4.6-6.2c-4-0.5-8.1-0.1-12.2-0.1c0,4.1,0,8.2,0,12.4
			C89.1,97.3,92.9,97.6,96.7,97.2z"/>
	</g>
</g>
</svg>
