<?xml version="1.0" encoding="utf-8"?>
<!-- Generator: Adobe Illustrator 22.1.0, SVG Export Plug-In . SVG Version: 6.00 Build 0)  -->
<svg version="1.1" id="Layer_1" xmlns="http://www.w3.org/2000/svg" xmlns:xlink="http://www.w3.org/1999/xlink" x="0px" y="0px"
	 viewBox="0 0 186 214.8" style="enable-background:new 0 0 186 214.8;" xml:space="preserve">
<style type="text/css">
	.st0{fill:#C4C4C4;}
</style>
<g>
	<path class="st0" d="M93,11.5l83,47.9v95.8l-83,47.9l-83-47.9V59.5L93,11.5 M93,0L0,53.7v107.4l93,53.7l93-53.7V53.7L93,0L93,0z"/>
</g>
<g transform="translate(0,-952.36218)">
	<path class="st0" d="M92.7,1005.4c17.7,0,32.1,14.3,32.1,32c0,1.1-0.1,2.1-0.2,3.1c-3.3-1-6.7-1.6-10.3-1.6
		c-8.2,0-15.7,2.8-21.6,7.6c-5.9-4.7-13.4-7.6-21.6-7.6c-3.6,0-7,0.5-10.3,1.6c-0.1-1-0.2-2.1-0.2-3.1
		C60.6,1019.7,74.9,1005.4,92.7,1005.4L92.7,1005.4z"/>
	<path class="st0" d="M71,1041.7c7.4,0,14.2,2.5,19.6,6.7c-5.2,4.9-9,11.4-10.4,18.7c-9.8-4.1-17.2-13-19.1-23.8
		C64.2,1042.2,67.6,1041.7,71,1041.7z"/>
	<path class="st0" d="M114.3,1041.7c3.5,0,6.8,0.6,9.9,1.6c-2,10.8-9.3,19.7-19.1,23.8c-1.4-7.3-5.2-13.8-10.4-18.7
		C100.1,1044.1,106.9,1041.7,114.3,1041.7z"/>
	<path class="st0" d="M58.6,1044.1c2.3,11.7,10.4,21.2,21.2,25.5c-0.2,1.3-0.2,2.7-0.2,4c0,10,4.3,19,11.1,25.4
		c-5.4,4.2-12.2,6.7-19.6,6.7c-17.7,0-32-14.3-32-32C39,1060.4,47.1,1049,58.6,1044.1L58.6,1044.1z"/>
	<path class="st0" d="M126.7,1044.1c11.5,4.8,19.6,16.2,19.6,29.6c0,17.7-14.3,32-32,32c-7.4,0-14.2-2.5-19.6-6.7
		c6.8-6.3,11.1-15.4,11.1-25.4c0-1.4-0.1-2.7-0.2-4C116.3,1065.4,124.4,1055.8,126.7,1044.1z"/>
	<path class="st0" d="M92.7,1050c5.1,4.6,8.7,10.9,9.9,17.9c-3.1,1-6.5,1.6-9.9,1.6c-3.5,0-6.8-0.6-9.9-1.6
		C84,1060.9,87.6,1054.6,92.7,1050L92.7,1050z"/>
	<path class="st0" d="M103,1070.6c0.1,1,0.2,2.1,0.2,3.1c0,9.4-4,17.8-10.4,23.7c-6.4-5.9-10.4-14.3-10.4-23.7
		c0-1.1,0.1-2.1,0.2-3.1c3.3,1,6.7,1.6,10.3,1.6C96.2,1072.1,99.7,1071.6,103,1070.6z"/>
</g>
</svg>
