<?xml version="1.0" encoding="utf-8"?>
<!-- Generator: Adobe Illustrator 22.1.0, SVG Export Plug-In . SVG Version: 6.00 Build 0)  -->
<svg version="1.1" id="Layer_1" xmlns="http://www.w3.org/2000/svg" xmlns:xlink="http://www.w3.org/1999/xlink" x="0px" y="0px"
	 viewBox="0 0 186 214.8" style="enable-background:new 0 0 186 214.8;" xml:space="preserve">
<style type="text/css">
	.st0{fill:#C4C4C4;}
</style>
<path class="st0" d="M117,131.3c0-1.5-0.6-2.9-1.6-4c1-1.1,1.6-2.5,1.6-4s-0.6-2.9-1.6-4c1-1.1,1.6-2.5,1.6-4c0-1.7-0.7-3.2-1.8-4.3
	c7.5-6.4,11.9-15.9,11.9-25.8C127,66.3,111.7,51,92.9,51S58.8,66.3,58.8,85.1c0,9.9,4.4,19.3,11.9,25.8c-1.1,1.1-1.8,2.6-1.8,4.3
	c0,1.5,0.6,2.9,1.6,4c-1,1.1-1.6,2.5-1.6,4s0.6,2.9,1.6,4c-1,1.1-1.6,2.5-1.6,4c0,2.6,1.7,4.8,4,5.6v14.4c0,0.5,0.2,1,0.6,1.4l0,0
	l18.1,18.1c0.4,0.4,0.9,0.6,1.4,0.6c0.5,0,1-0.2,1.4-0.6l18.1-18.1l0,0c0.4-0.4,0.6-0.9,0.6-1.4v-14.4
	C115.3,136.1,117,133.9,117,131.3z M72.9,123.2c0-1.1,0.9-2,2-2H111c1.1,0,2,0.9,2,2c0,1.1-0.9,2-2,2H74.9
	C73.8,125.2,72.9,124.3,72.9,123.2z M72.9,115.2c0-1.1,0.9-2,2-2H111l0,0c1.1,0,2,0.9,2,2c0,1.1-0.9,2-2,2H74.9
	C73.8,117.2,72.9,116.3,72.9,115.2z M88.2,93.6l-7.7-6.5c-2.3-1.9-3.6-4.7-3.6-7.6c0-3.4,2.8-6.5,6-6.5c0.6,0,1.2,0.1,1.8,0.3
	c0,0.1-0.1,0.1-0.1,0.2c-0.2,0.3-0.4,0.6-0.6,1c0,0.1-0.1,0.1-0.1,0.2c-0.2,0.4-0.4,0.8-0.5,1.2c0,0.1-0.1,0.2-0.1,0.3
	c-0.1,0.3-0.2,0.7-0.2,1c0,0.1,0,0.3-0.1,0.4c-0.1,0.5-0.1,0.9-0.1,1.4c0,3,1.4,5.9,3.8,7.8c0.4,0.3,0.8,0.4,1.3,0.4
	c0.4,0,0.9-0.1,1.3-0.4c2.4-1.9,3.8-4.8,3.8-7.8c0-0.5,0-0.9-0.1-1.4c0-0.1,0-0.3-0.1-0.4c-0.1-0.3-0.1-0.7-0.2-1
	c0-0.1-0.1-0.2-0.1-0.3c-0.1-0.4-0.3-0.8-0.5-1.2c0-0.1-0.1-0.1-0.1-0.2c-0.2-0.3-0.4-0.7-0.6-1c0-0.1-0.1-0.1-0.1-0.2
	c1.2-0.4,2.5-0.4,3.6,0c0,0.1-0.1,0.1-0.1,0.2c-0.2,0.3-0.4,0.6-0.6,1c0,0.1-0.1,0.1-0.1,0.2c-0.2,0.4-0.4,0.8-0.5,1.2
	c0,0.1-0.1,0.2-0.1,0.3c-0.1,0.3-0.2,0.7-0.2,1c0,0.1,0,0.3-0.1,0.4c-0.1,0.5-0.1,0.9-0.1,1.4c0,3,1.4,5.9,3.8,7.8
	c0.4,0.3,0.8,0.4,1.3,0.4s0.9-0.1,1.3-0.4c2.4-1.9,3.8-4.8,3.8-7.8c0-0.5,0-0.9-0.1-1.4c0-0.1,0-0.3-0.1-0.4c-0.1-0.3-0.1-0.7-0.2-1
	c0-0.1-0.1-0.2-0.1-0.3c-0.1-0.4-0.3-0.8-0.5-1.2c0-0.1-0.1-0.1-0.1-0.2c-0.2-0.3-0.4-0.7-0.6-1c0-0.1-0.1-0.1-0.1-0.2
	c0.6-0.2,1.2-0.3,1.8-0.3c3.2,0,6,3,6,6.5c0,2.9-1.3,5.7-3.6,7.6l-7.7,6.5C97.2,94,97,94.6,97,95.2v14h-8v-14
	C88.9,94.6,88.7,94,88.2,93.6z M88.3,76.6c0.2,0.3,0.3,0.7,0.4,1.1c0,0.1,0,0.2,0.1,0.3c0.1,0.4,0.1,0.8,0.1,1.2
	c0,0.4-0.1,0.8-0.1,1.2c0,0.1,0,0.2-0.1,0.3c-0.1,0.4-0.2,0.7-0.4,1.1c0,0,0,0.1,0,0.1c-0.1,0.2-0.2,0.4-0.4,0.6
	c-0.1-0.2-0.3-0.4-0.4-0.6c0,0,0-0.1,0-0.1c-0.2-0.4-0.3-0.7-0.4-1.1c0-0.1,0-0.2-0.1-0.3c-0.1-0.4-0.1-0.8-0.1-1.2
	c0-0.4,0.1-0.8,0.1-1.2c0-0.1,0-0.2,0.1-0.3c0.1-0.4,0.2-0.7,0.4-1.1c0,0,0-0.1,0-0.1c0.1-0.2,0.2-0.4,0.4-0.6
	C88.1,76.1,88.2,76.3,88.3,76.6C88.3,76.5,88.3,76.5,88.3,76.6z M98.4,76.6c0.2,0.3,0.3,0.7,0.4,1.1c0,0.1,0,0.2,0.1,0.3
	c0.1,0.4,0.1,0.8,0.1,1.2c0,0.4-0.1,0.8-0.1,1.2c0,0.1,0,0.2-0.1,0.3c-0.1,0.4-0.2,0.7-0.4,1.1c0,0,0,0.1,0,0.1
	c-0.1,0.2-0.2,0.4-0.4,0.6c-0.1-0.2-0.3-0.4-0.4-0.6c0,0,0-0.1,0-0.1c-0.2-0.4-0.3-0.7-0.4-1.1c0-0.1,0-0.2-0.1-0.3
	C97,79.9,97,79.5,97,79.1c0-0.4,0.1-0.8,0.1-1.2c0-0.1,0-0.2,0.1-0.3c0.1-0.4,0.2-0.7,0.4-1.1c0,0,0-0.1,0-0.1
	c0.1-0.2,0.2-0.4,0.4-0.6C98.1,76.1,98.2,76.3,98.4,76.6C98.3,76.5,98.4,76.5,98.4,76.6z M62.9,85.1C62.9,68.5,76.4,55,92.9,55
	S123,68.5,123,85.1c0,9.4-4.5,18.4-12.1,24.1h-10V96.1l7-5.9c3.2-2.7,5-6.6,5-10.7c0-5.7-4.6-10.5-10-10.5c-1.8,0-3.5,0.5-5,1.4
	c-3.1-1.8-6.9-1.8-10,0c-1.5-0.9-3.2-1.4-5-1.4c-5.4,0-10,4.8-10,10.5c0,4.1,1.8,8,5,10.7l7,5.9v13.1h-10
	C67.4,103.5,62.9,94.6,62.9,85.1z M78,151.6l2.9-1.9l4.9,3.3c0.7,0.4,1.6,0.4,2.2,0l4.9-3.3l4.9,3.3c0.7,0.4,1.6,0.4,2.2,0l4.9-3.3
	l2.9,1.9l-7.7,7.7H85.7L78,151.6z M106.1,145.6c-0.7-0.4-1.6-0.4-2.2,0l-4.9,3.3l-4.9-3.3c-0.7-0.4-1.6-0.4-2.2,0l-4.9,3.3l-4.9-3.3
	c-0.7-0.4-1.6-0.4-2.2,0l-2.9,1.9v-10.3H109v10.3L106.1,145.6z M92.9,166.5l-3.2-3.2h6.4L92.9,166.5z M111,133.3H74.9
	c-1.1,0-2-0.9-2-2s0.9-2,2-2H111c1.1,0,2,0.9,2,2S112.1,133.3,111,133.3z"/>
<rect x="125.9" y="50.1" transform="matrix(0.7071 -0.7071 0.7071 0.7071 1.709 108.725)" class="st0" width="12.4" height="4.4"/>
<rect x="129.9" y="107.3" transform="matrix(0.7071 -0.7071 0.7071 0.7071 -41.5335 126.6363)" class="st0" width="4.4" height="12.4"/>
<rect x="136.5" y="80.7" class="st0" width="13.1" height="4.4"/>
<rect x="51.3" y="46.1" transform="matrix(0.7071 -0.7071 0.7071 0.7071 -21.3204 53.1295)" class="st0" width="4.4" height="12.4"/>
<rect x="47.3" y="111.3" transform="matrix(0.7071 -0.7071 0.7071 0.7071 -64.5607 71.0398)" class="st0" width="12.4" height="4.4"/>
<rect x="36" y="80.7" class="st0" width="13.1" height="4.4"/>
<g>
	<path class="st0" d="M93,11.5l83,47.9v95.8l-83,47.9l-83-47.9V59.5L93,11.5 M93,0L0,53.7v107.4l93,53.7l93-53.7V53.7L93,0L93,0z"/>
</g>
</svg>
