<?xml version="1.0" encoding="utf-8"?>
<!-- Generator: Adobe Illustrator 22.1.0, SVG Export Plug-In . SVG Version: 6.00 Build 0)  -->
<svg version="1.1" id="Layer_2" xmlns="http://www.w3.org/2000/svg" xmlns:xlink="http://www.w3.org/1999/xlink" x="0px" y="0px"
	 viewBox="0 0 186 214.8" style="enable-background:new 0 0 186 214.8;" xml:space="preserve">
<style type="text/css">
	.st0{fill:#C4C4C4;}
</style>
<g>
	<g>
		<path class="st0" d="M93,11.2l83,47.9v95.8l-83,47.9l-83-47.9V59.1L93,11.2 M93-0.4L0,53.3v107.4l93,53.7l93-53.7V53.3L93-0.4
			L93-0.4z"/>
	</g>
	<g id="Layer_x0020_1_2_">
		<path class="st0" d="M130.5,161.6l8.3-93.4L139,67h-1.2H46.2H45l0.1,1.2l8.3,93.4l0.1,0.8l0.8,0.2L91.6,173h0.6l37.5-10.4l0.8-0.2
			L130.5,161.6L130.5,161.6z M92,87.7h27.3l-0.8,9.6l-26.9,12l0.5,2.2h25.3l-2.9,33.4L92,150.9l-22.5-6.2l-1.4-16h9.2l0.7,8.1
			l0.1,0.8l0.8,0.2l12.9,3.4l0.6,0l12.7-3.5l0.8-0.2l0.1-0.8l1.3-15l0.1-1.2H106H92H67.3l-0.8-9.6l26-11.1l1.8-0.8l-0.4-2.2H92H65.3
			l-0.8-9.2h27.5L92,87.7L92,87.7z"/>
	</g>
	<g id="L5hnO8.tif_1_">
		<g>
			<path class="st0" d="M85.7,60c0-1.9,0-3.7,0-5.8c2,0,3.8,0,5.8,0c-1.8-1.8-3.4-3.3-4.8-4.9c-0.5-0.6-0.9-1.5-0.9-2.2
				c-0.1-1.5,0-3.1,0-4.7c4.9,0,9.6,0,14.5,0c0,2,0,3.9,0,6c-1.8,0-3.6,0-5.5,0c1.6,1.7,2.9,3.2,4.4,4.6c0.9,0.9,1.4,1.8,1.3,3
				c-0.1,1.3-0.1,2.7-0.1,4.1C95.4,60,90.6,60,85.7,60z"/>
			<path class="st0" d="M106.6,60c0-1.9,0-3.7,0-5.7c1.9,0,3.7,0,5.7,0c-1.3-1.4-2.4-2.7-3.7-3.7c-1.6-1.3-2.4-2.9-2.1-5
				c0.1-1,0-2.1,0-3.2c4.9,0,9.6,0,14.4,0c0,1.9,0,3.9,0,6c-1.8,0-3.6,0-5.6,0c1.7,1.7,3.1,3.3,4.7,4.8c0.8,0.7,1.1,1.5,1.1,2.5
				c-0.1,1.4,0,2.9,0,4.3C116.3,60,111.5,60,106.6,60z"/>
			<path class="st0" d="M64.8,60c0-5.8,0-11.7,0-17.6c4.8,0,9.6,0,14.4,0c0,2,0,3.9,0,6c-2.7,0-5.4,0-8.2,0c0,2,0,3.8,0,5.8
				c2.7,0,5.4,0,8.3,0c0,2,0,3.9,0,5.8C74.5,60,69.7,60,64.8,60z"/>
		</g>
	</g>
</g>
</svg>
