<?xml version="1.0" encoding="utf-8"?>
<!-- Generator: Adobe Illustrator 22.1.0, SVG Export Plug-In . SVG Version: 6.00 Build 0)  -->
<svg version="1.1" id="Layer_1" xmlns="http://www.w3.org/2000/svg" xmlns:xlink="http://www.w3.org/1999/xlink" x="0px" y="0px"
	 viewBox="0 0 186 214.8" style="enable-background:new 0 0 186 214.8;" xml:space="preserve">
<style type="text/css">
	.st0{fill:#C4C4C4;}
</style>
<g>
	<path class="st0" d="M93,11.5l83,47.9v95.8l-83,47.9l-83-47.9V59.5L93,11.5 M93,0L0,53.7v107.4l93,53.7l93-53.7V53.7L93,0L93,0z"/>
</g>
<g>
	<path class="st0" d="M92.2,144.4c-27.3-0.8-49-12.3-66.7-32.1c-2.1-2.4-2-4.8,0-7.1c29.2-33.1,75.1-44,115.2-15.5
		c6.3,4.5,11.6,10.3,17.3,15.6c2.1,2,2.2,4.5,0.2,6.7C140.6,132.1,118.8,143.5,92.2,144.4z M91.9,84.6
		c-13.3,0.1-24.4,11.2-24.3,24.3c0.2,13.2,11,24,24.2,24c13.4,0,24.4-11.2,24.3-24.7C115.9,95.5,104.7,84.6,91.9,84.6z M148.8,109
		c-8.6-10.1-28.1-22.2-35-22.2c10.7,11.6,13.3,29.1-0.5,45C127.5,127,138.7,119.2,148.8,109z M69.9,86.5
		c-9.2,1.1-29.4,14.7-34.7,22.3c6.5,8.7,26.3,21.4,34.7,22.2C57.9,117.6,57.6,100.4,69.9,86.5z"/>
	<path class="st0" d="M77,104.8c2.3,4.7,5.3,6.7,9,6c3.5-0.6,6.3-3.7,6.5-7.2c0.3-4.2-1.8-6.6-7.5-8.6c6-4.2,14.9-1.3,18.8,3.4
		c5,6,5.2,14.5,0.2,20.4c-5.1,6.1-13.3,7.5-20.1,3.6C77.4,118.7,74.5,111.2,77,104.8z"/>
</g>
</svg>
