<?xml version="1.0" encoding="utf-8"?>
<!-- Generator: Adobe Illustrator 22.1.0, SVG Export Plug-In . SVG Version: 6.00 Build 0)  -->
<svg version="1.1" id="Layer_1" xmlns="http://www.w3.org/2000/svg" xmlns:xlink="http://www.w3.org/1999/xlink" x="0px" y="0px"
	 viewBox="0 0 186 214.8" style="enable-background:new 0 0 186 214.8;" xml:space="preserve">
<style type="text/css">
	.st0{fill:#C4C4C4;}
</style>
<g>
	<g>
		<g>
			<path class="st0" d="M93,11.5l83,47.9v95.8l-83,47.9l-83-47.9V59.5L93,11.5 M93,0L0,53.7v107.4l93,53.7l93-53.7V53.7L93,0L93,0z"
				/>
		</g>
	</g>
	<path class="st0" d="M122.7,67.8c-8.5,0-15.4,6.9-15.4,15.4c0,5.7,3.1,10.6,7.7,13.3v2.1c0,0,0,15.4-15.4,15.4
		c-6.4,0-11.4,1.4-15.4,3.5V81.1c4.6-2.7,7.7-7.6,7.7-13.3c0-8.5-6.9-15.4-15.4-15.4S61,59.3,61,67.8c0,5.7,3.1,10.6,7.7,13.3v50.6
		c-4.6,2.7-7.7,7.6-7.7,13.3c0,8.5,6.9,15.4,15.4,15.4s15.4-6.9,15.4-15.4c0-4-1.6-7.7-4.1-10.4c2.2-2.8,5.9-5,11.8-5
		c30.6,0,30.9-30.9,30.9-30.9v-2.1c4.6-2.7,7.7-7.6,7.7-13.3C138.1,74.7,131.2,67.8,122.7,67.8z M76.4,60.1c4.3,0,7.7,3.4,7.7,7.7
		s-3.4,7.7-7.7,7.7c-4.3,0-7.7-3.4-7.7-7.7S72.2,60.1,76.4,60.1z M76.4,152.7c-4.3,0-7.7-3.5-7.7-7.7c0-4.3,3.4-7.7,7.7-7.7
		c4.3,0,7.7,3.5,7.7,7.7C84.1,149.2,80.7,152.7,76.4,152.7z M122.7,91c-4.3,0-7.7-3.4-7.7-7.7c0-4.3,3.5-7.7,7.7-7.7
		c4.3,0,7.7,3.4,7.7,7.7C130.4,87.5,127,91,122.7,91z"/>
</g>
</svg>
