<?xml version="1.0" encoding="utf-8"?>
<!-- Generator: Adobe Illustrator 22.1.0, SVG Export Plug-In . SVG Version: 6.00 Build 0)  -->
<svg version="1.1" xmlns="http://www.w3.org/2000/svg" xmlns:xlink="http://www.w3.org/1999/xlink" x="0px" y="0px"
	 viewBox="0 0 186 214.8" style="enable-background:new 0 0 186 214.8;" xml:space="preserve">
<style type="text/css">
	.st0{fill:#C4C4C4;}
</style>
<g id="Layer_2">
</g>
<g id="Layer_1">
	<g>
		<g>
			<path class="st0" d="M93,11.5l83,47.9v95.8l-83,47.9l-83-47.9V59.5L93,11.5 M93,0L0,53.7v107.4l93,53.7l93-53.7V53.7L93,0L93,0z"
				/>
		</g>
		<g id="IlKv6O.tif">
			<g>
				<path class="st0" d="M92.5,174.4c-0.2,0-0.3,0-0.5,0c-0.5-0.2-0.9-0.4-1.4-0.6c-11.1-3.1-22.2-6.2-33.3-9.2
					c-3.3-0.9-3.3-0.9-3.7-4.3c0,0,0-0.1,0-0.1c-0.5-5.3-1-10.6-1.5-15.9c-0.5-5.3-0.9-10.7-1.4-16c-0.6-6.2-1.2-12.5-1.7-18.7
					c-0.5-5.4-0.9-10.8-1.4-16.1c-0.6-7.2-1.3-14.4-2-21.7c-0.1-1.3-0.2-2.6-0.3-4c31.3,0,62.5,0,93.8,0c0,0.5,0.1,0.8,0,1.2
					c-0.3,4-0.7,7.9-1.1,11.9c-0.6,6.3-1.2,12.6-1.7,18.8c-0.6,6.3-1.1,12.6-1.6,18.8c-0.7,7.3-1.4,14.5-2,21.8
					c-0.6,7.3-1.3,14.5-1.9,21.8c-0.1,1-0.4,1.6-1.5,1.9c-10,2.7-19.9,5.5-29.8,8.2C97.2,172.9,94.9,173.7,92.5,174.4z M119.9,110.9
					c-14.5,0-28.7,0-43,0c-0.4-4-0.7-7.8-1-11.7c0.4,0,0.6-0.1,0.9-0.1c5.2,0,10.3,0,15.5,0c9.2,0,18.4,0,27.7,0
					c0.9,0,1.2-0.3,1.2-1.2c0.2-3,0.5-6,0.8-9c0.2-2,0.3-2-1.6-2c-18.7,0-37.3,0-56,0c-0.5,0-1,0-1.7,0.1c0.1,1.7,0.3,3.3,0.4,4.9
					c0.5,5.4,1,10.8,1.5,16.1c0.4,4.5,0.9,9,1.2,13.6c0.1,1.1,0.5,1.3,1.5,1.3c4.7,0,9.4,0,14.2,0c8,0,15.9,0,23.9,0
					c1.1,0,1.4,0.4,1.3,1.4c-0.1,0.8-0.2,1.6-0.3,2.4c-0.3,3.2-0.6,6.4-0.8,9.7c-0.1,1-0.5,1.6-1.5,1.9c-3.6,0.9-7.2,1.9-10.8,2.9
					c-0.6,0.1-1.2,0.2-1.8,0c-3.7-1-7.3-2-11-2.9c-0.8-0.2-1.1-0.6-1.2-1.4c-0.1-2.3-0.4-4.7-0.5-7c-0.1-0.9-0.3-1.4-1.4-1.4
					c-3.2,0.1-6.4,0.1-9.6,0c-1,0-1.3,0.3-1.2,1.3c0.5,5.4,1,10.8,1.5,16.3c0.1,0.9,0.4,1.3,1.2,1.5c7.5,2,15,4.1,22.5,6.2
					c0.5,0.1,1.1,0.2,1.6,0c7.5-2,14.9-4.1,22.3-6.2c1-0.3,1.3-0.8,1.3-1.7c0.1-1.6,0.2-3.1,0.3-4.6c0.4-4.5,0.8-8.9,1.2-13.4
					c0.3-3.4,0.6-6.9,0.9-10.3C119.5,115.5,119.7,113.3,119.9,110.9z"/>
				<path class="st0" d="M113.3,41.4c0,5.9,0,11.8,0,17.9c-1.9,0-3.8,0-5.9,0c0-2.7,0-5.5,0-8.2c-0.1,0-0.2,0-0.3-0.1
					c-1.3,1.9-2.5,3.9-3.9,6c-1.4-2.1-2.6-4-4.1-6.3c0,3.1,0,5.8,0,8.6c-2,0-3.9,0-5.9,0c0-0.5,0-1.1,0-1.6c0-4.9,0-9.9,0-14.8
					c0-0.5-0.1-1-0.1-1.5c2.2,0,4.3,0,6.5,0c1.2,2,2.4,4,3.7,6.2c1.3-2.2,2.6-4.2,3.8-6.2C109.2,41.4,111.2,41.4,113.3,41.4z"/>
				<path class="st0" d="M71.5,41.4c0,5.9,0,11.8,0,17.9c-2.1,0-4,0-6.1,0c0-1.9,0-3.8,0-5.8c-1.9,0-3.6,0-5.5,0c0,1.9,0,3.8,0,5.8
					c-2.1,0-4,0-6.2,0c0-6,0-11.9,0-17.9c2.1,0,4.2,0,6.2,0c0,1.9,0,3.9,0,5.9c1.7,0,3.5,0,5.2,0c0-2,0-3.9,0-5.9
					C67.3,41.4,69.4,41.4,71.5,41.4z"/>
				<path class="st0" d="M90.7,41.4c0,1.9,0,3.9,0,5.9c-1.9,0-3.6,0-5.4,0c0,4,0,7.9,0,11.9c-2.1,0-4,0-6.1,0c0-3.9,0-7.8,0-11.9
					c-1.8,0-3.5,0-5.5,0c0-2.1,0-4.1,0-6C79.5,41.4,85.1,41.4,90.7,41.4z"/>
				<path class="st0" d="M122.4,41.4c0,3.9,0,7.9,0,11.9c2.8,0,5.6,0,8.4,0c0,2.1,0,4,0,6c-4.8,0-9.6,0-14.5,0c0-0.6,0-1.1,0-1.6
					c0-4.9,0-9.9,0-14.8c0-0.5-0.1-1-0.1-1.5C118.3,41.4,120.3,41.4,122.4,41.4z"/>
			</g>
		</g>
	</g>
</g>
</svg>
