<?xml version="1.0" encoding="utf-8"?>
<!-- Generator: Adobe Illustrator 22.1.0, SVG Export Plug-In . SVG Version: 6.00 Build 0)  -->
<svg version="1.1" id="Layer_1" xmlns="http://www.w3.org/2000/svg" xmlns:xlink="http://www.w3.org/1999/xlink" x="0px" y="0px"
	 viewBox="0 0 186 214.8" style="enable-background:new 0 0 186 214.8;" xml:space="preserve">
<style type="text/css">
	.st0{fill:#C4C4C4;}
</style>
<g id="b7m48m.tif_1_">
	<g>
		<path class="st0" d="M144.5,60.7c0-0.7,0-1.5-0.2-2.1c-0.7-2.9-3.2-4.7-6.5-4.7c-14.9,0-29.8,0-44.8,0c-14.9,0-29.8,0-44.8,0
			c-4.1,0-6.7,2.6-6.7,6.7c0,29.8,0,59.7,0,89.5c0,4.1,2.6,6.7,6.7,6.7c29.8,0,59.7,0,89.5,0c4.1,0,6.7-2.6,6.7-6.7
			C144.5,120.3,144.5,90.5,144.5,60.7z M106.5,132.7c-3.5,0-6.9,0-10.4,0c-0.8,0-1.2-0.2-1.5-1c-1-3.6-2.2-7.1-3.1-10.7
			c-0.4-1.4-1-1.8-2.4-1.8c-4,0.1-7.9,0.1-11.9,0c-1,0-1.4,0.3-1.6,1.3c-1.1,4-2.2,8-3.4,12.1c-4,0-8,0-12.2,0
			c0.4-1.4,0.8-2.8,1.2-4.1c3.9-12.7,7.8-25.4,11.7-38.1c0.9-3.1,1.9-6.1,2.8-9.2c0.2-0.7,0.5-1,1.3-1c4.5,0,9,0,13.6,0
			c0.7,0,1,0.2,1.2,0.9c4.1,13.1,8.1,26.3,12.2,39.4c1.2,3.9,2.4,7.9,3.7,12C107.1,132.6,106.8,132.7,106.5,132.7z M125.7,131.5
			c0,1-0.3,1.2-1.2,1.2c-3.1,0-6.3-0.1-9.4,0c-1.1,0-1.3-0.4-1.3-1.3c0-5.9,0-11.8,0-17.7c0-5.9,0-11.7,0-17.6
			c0-1.1,0.3-1.5,1.4-1.5c3,0.1,6.1,0.1,9.1,0c1,0,1.3,0.3,1.3,1.3C125.7,107.7,125.7,119.6,125.7,131.5z M119.8,89.9
			c-3.7,0-6.2-2.4-6.2-5.9c0-3.5,2.5-5.9,6.2-5.9c3.6,0,6.3,2.6,6.3,6C126.1,87.4,123.4,89.9,119.8,89.9z"/>
		<path class="st0" d="M83.2,89.2c-1.8,7-3.7,13.9-5.5,21c0,0,0,0,0,0c0,0,0,0.1,0,0.1c3.8,0,7.5,0,11.4,0c0,0,0-0.1,0-0.1
			c0,0,0,0,0,0C87.1,103.1,85.2,96.2,83.2,89.2z"/>
	</g>
</g>
<g>
	<path class="st0" d="M93,11.5l83,47.9v95.8l-83,47.9l-83-47.9V59.5L93,11.5 M93,0L0,53.7v107.4l93,53.7l93-53.7V53.7L93,0L93,0z"/>
</g>
</svg>
