<?xml version="1.0" encoding="utf-8"?>
<!-- Generator: Adobe Illustrator 22.1.0, SVG Export Plug-In . SVG Version: 6.00 Build 0)  -->
<svg version="1.1" id="Layer_1" xmlns="http://www.w3.org/2000/svg" xmlns:xlink="http://www.w3.org/1999/xlink" x="0px" y="0px"
	 viewBox="0 0 186 214.8" style="enable-background:new 0 0 186 214.8;" xml:space="preserve">
<style type="text/css">
	.st0{clip-path:url(#SVGID_2_);fill:#C4C4C4;}
	.st1{fill:#C4C4C4;}
</style>
<g>
	<g>
		<g>
			<defs>
				<rect id="SVGID_1_" x="66.9" y="75.8" width="53.1" height="88.6"/>
			</defs>
			<clipPath id="SVGID_2_">
				<use xlink:href="#SVGID_1_"  style="overflow:visible;"/>
			</clipPath>
			<path class="st0" d="M116.4,154.2v6c0,2.3-1.9,4.2-4.2,4.2H75.8c-2.3,0-4.2-1.9-4.2-4.2v-6c0-2.3,1.9-4.2,4.2-4.2h36.5
				C114.5,150,116.4,151.8,116.4,154.2L116.4,154.2z M68.1,117.4l8.4,25.7c0.6,1.7,2.2,2.9,4,2.9h27c1.8,0,3.4-1.2,4-2.9l8.4-25.7
				c0.4-1.2,0.2-2.4-0.4-3.5L97.6,78c-0.3-0.4-0.6-0.8-1-1.1V113c3.4,1.1,5.9,4.3,5.9,8.1c0,4.7-3.8,8.5-8.5,8.5
				c-4.7,0-8.5-3.8-8.5-8.5c0-3.8,2.5-7,5.9-8.1V77c-0.4,0.3-0.7,0.6-1,1.1l-21.9,35.9C67.9,114.9,67.7,116.2,68.1,117.4L68.1,117.4
				z M68.1,117.4"/>
		</g>
	</g>
	<g>
		<path class="st1" d="M111.5,59.3h22.8c1,0,1.8-0.8,1.8-1.8c0-1-0.8-1.8-1.8-1.8H98.7c-0.3,0-0.6,0.1-0.8,0.2l-1-0.1v5.2h-7.1v-5.2
			L88,56v-0.3H52.5v3.6h22.8c-17.7,7.2-29.9,24.5-29.9,44.5c0,1,0.8,1.8,1.8,1.8c1,0,1.8-0.8,1.8-1.8c0-21.9,15.9-40.5,37.4-43.9
			v4.8h14.2v-4.8c21.4,3.4,37.4,22,37.4,43.9c0,1,0.8,1.8,1.8,1.8c1,0,1.8-0.8,1.8-1.8C141.4,83.8,129.2,66.5,111.5,59.3L111.5,59.3
			z M111.5,59.3"/>
		<rect x="41.8" y="103.8" class="st1" width="10.7" height="10.7"/>
		<path class="st1" d="M54.2,116.2H40V102h14.2V116.2z M43.6,112.7h7.1v-7.1h-7.1V112.7z M43.6,112.7"/>
		<rect x="134.3" y="103.8" class="st1" width="10.7" height="10.7"/>
		<path class="st1" d="M146.8,116.2h-14.2V102h14.2V116.2z M136.1,112.7h7.1v-7.1h-7.1V112.7z M136.1,112.7"/>
		<rect x="88" y="52.2" class="st1" width="10.7" height="10.7"/>
		<path class="st1" d="M100.5,64.6H86.3V50.4h14.2V64.6z M89.8,61.1h7.1V54h-7.1V61.1z M89.8,61.1"/>
		<path class="st1" d="M52.5,57.5c0,3-2.4,5.3-5.3,5.3c-2.9,0-5.3-2.4-5.3-5.3c0-2.9,2.4-5.3,5.3-5.3C50.1,52.2,52.5,54.6,52.5,57.5
			L52.5,57.5z M52.5,57.5"/>
		<path class="st1" d="M47.1,64.6c-3.9,0-7.1-3.2-7.1-7.1c0-3.9,3.2-7.1,7.1-7.1c3.9,0,7.1,3.2,7.1,7.1C54.2,61.4,51,64.6,47.1,64.6
			L47.1,64.6z M47.1,54c-2,0-3.6,1.6-3.6,3.6c0,2,1.6,3.6,3.6,3.6c2,0,3.6-1.6,3.6-3.6C50.7,55.5,49.1,54,47.1,54L47.1,54z M47.1,54
			"/>
		<path class="st1" d="M145,57.5c0,3-2.4,5.3-5.3,5.3c-3,0-5.3-2.4-5.3-5.3c0-2.9,2.4-5.3,5.3-5.3C142.6,52.2,145,54.6,145,57.5
			L145,57.5z M145,57.5"/>
		<path class="st1" d="M139.6,64.6c-3.9,0-7.1-3.2-7.1-7.1c0-3.9,3.2-7.1,7.1-7.1c3.9,0,7.1,3.2,7.1,7.1
			C146.8,61.4,143.6,64.6,139.6,64.6L139.6,64.6z M139.6,54c-2,0-3.6,1.6-3.6,3.6c0,2,1.6,3.6,3.6,3.6c2,0,3.6-1.6,3.6-3.6
			C143.2,55.5,141.6,54,139.6,54L139.6,54z M139.6,54"/>
	</g>
</g>
<g>
	<path class="st1" d="M93,11.5l83,47.9v95.8l-83,47.9l-83-47.9V59.5L93,11.5 M93,0L0,53.7v107.4l93,53.7l93-53.7V53.7L93,0L93,0z"/>
</g>
</svg>
