<?xml version="1.0" encoding="utf-8"?>
<!-- Generator: Adobe Illustrator 22.1.0, SVG Export Plug-In . SVG Version: 6.00 Build 0)  -->
<svg version="1.1" id="Layer_1" xmlns="http://www.w3.org/2000/svg" xmlns:xlink="http://www.w3.org/1999/xlink" x="0px" y="0px"
	 viewBox="0 0 186 214.8" style="enable-background:new 0 0 186 214.8;" xml:space="preserve">
<style type="text/css">
	.st0{fill:#C4C4C4;}
</style>
<g>
	<g>
		<path class="st0" d="M93,11.5l83,47.9v95.8l-83,47.9l-83-47.9V59.5L93,11.5 M93,0L0,53.7v107.4l93,53.7l93-53.7V53.7L93,0L93,0z"
			/>
	</g>
	<path class="st0" d="M44.9,67.9l8.4,94.9l38.1,10.6l38.1-10.6l8.4-94.9H44.9z M115.3,146.7l-23.9,6.6l-23.8-6.6l-1.6-18.3h11.7
		l0.8,9.3l13,3.5l13-3.5l3.3-38.7H63.3l-1-11.5h58.3L115.3,146.7z"/>
	<path class="st0" d="M85,42.4v11.2h-9.7v6.2h16.2V42.4H85z M94.7,42.4v6.5l7.1,5.3h-7.1v5.6h16.5v-5.6l-8-6.2h8v-5.6H94.7z"/>
</g>
</svg>