<?xml version="1.0" encoding="utf-8"?>
<!-- Generator: Adobe Illustrator 22.1.0, SVG Export Plug-In . SVG Version: 6.00 Build 0)  -->
<svg version="1.1" id="Layer_1" xmlns="http://www.w3.org/2000/svg" xmlns:xlink="http://www.w3.org/1999/xlink" x="0px" y="0px"
	 viewBox="0 0 229.3 229.3" style="enable-background:new 0 0 229.3 229.3;" xml:space="preserve">
<style type="text/css">
	.st0{fill:#FFFFFF;}
</style>
<g>
	<g>
		<path class="st0" d="M166.5,95.8c-0.2-0.2-0.4-0.4-0.7-0.4l-6-0.9c-0.3-1-0.8-2.1-1.3-3.2c0.4-0.5,1-1.3,1.8-2.3
			c0.8-1,1.3-1.7,1.7-2.2c0.2-0.2,0.3-0.5,0.3-0.7c0-0.3-0.1-0.5-0.2-0.7c-0.8-1.1-2.6-3-5.4-5.5c-0.3-0.2-0.5-0.3-0.8-0.3
			c-0.3,0-0.6,0.1-0.8,0.3l-4.6,3.5c-0.9-0.5-1.9-0.9-2.9-1.2l-0.9-6c0-0.3-0.1-0.5-0.4-0.7c-0.2-0.2-0.5-0.3-0.8-0.3h-7.2
			c-0.6,0-1,0.3-1.2,0.9c-0.3,1.1-0.6,3.1-0.9,6.1c-1,0.3-2,0.7-3,1.2l-4.5-3.5c-0.3-0.2-0.6-0.3-0.8-0.3c-0.5,0-1.5,0.8-3.1,2.3
			c-1.6,1.6-2.6,2.7-3.2,3.5c-0.2,0.3-0.3,0.5-0.3,0.7c0,0.3,0.1,0.5,0.3,0.8c1.5,1.8,2.6,3.3,3.5,4.5c-0.5,1-1,2-1.3,3l-6.1,0.9
			c-0.2,0-0.4,0.2-0.6,0.4c-0.2,0.2-0.3,0.5-0.3,0.7v7.2c0,0.3,0.1,0.5,0.3,0.8c0.2,0.2,0.4,0.4,0.7,0.4l6,0.9
			c0.3,1.1,0.7,2.1,1.3,3.2c-0.4,0.5-1,1.3-1.8,2.3c-0.8,1-1.3,1.7-1.7,2.2c-0.2,0.2-0.3,0.5-0.3,0.7c0,0.3,0.1,0.5,0.2,0.7
			c0.8,1.2,2.6,3,5.4,5.5c0.2,0.2,0.5,0.4,0.8,0.4c0.3,0,0.6-0.1,0.8-0.3l4.6-3.5c0.9,0.5,1.9,0.9,2.9,1.2l0.9,6
			c0,0.3,0.1,0.5,0.4,0.7c0.2,0.2,0.5,0.3,0.8,0.3h7.2c0.6,0,1-0.3,1.2-0.9c0.3-1.1,0.6-3.1,0.9-6.1c1-0.3,2-0.7,3-1.2l4.5,3.5
			c0.3,0.2,0.6,0.3,0.8,0.3c0.5,0,1.5-0.8,3.1-2.3c1.6-1.5,2.6-2.7,3.2-3.5c0.2-0.2,0.3-0.5,0.3-0.7c0-0.3-0.1-0.6-0.3-0.8
			c-1.6-1.9-2.7-3.4-3.5-4.5c0.4-0.8,0.9-1.8,1.3-3l6-0.9c0.3,0,0.5-0.2,0.7-0.4c0.2-0.2,0.3-0.5,0.3-0.7v-7.2
			C166.8,96.2,166.7,96,166.5,95.8L166.5,95.8z M147.7,106c-1.6,1.6-3.6,2.4-5.9,2.4c-2.3,0-4.3-0.8-5.9-2.4
			c-1.6-1.6-2.4-3.6-2.4-5.9c0-2.3,0.8-4.3,2.4-5.9c1.6-1.6,3.6-2.4,5.9-2.4c2.3,0,4.3,0.8,5.9,2.4c1.6,1.6,2.4,3.6,2.4,5.9
			C150.1,102.4,149.3,104.3,147.7,106L147.7,106z M147.7,106"/>
	</g>
	<g>
		<path class="st0" d="M115.6,229.3L0,113.8L113.8,0l115.6,115.6L115.6,229.3z M14.1,113.8l101.4,101.4l99.6-99.6L113.8,14.1
			L14.1,113.8z"/>
	</g>
	<g>
		<path class="st0" d="M145.4,127.6h-3.3v29.1h-56V68.4h56v4.2h3.3c0.8,0,1.5,0.2,2.1,0.7v-9.4c0-4.3-3.5-7.8-7.8-7.8H88.5
			c-4.3,0-7.8,3.5-7.8,7.8v99.5c0,4.3,3.5,7.8,7.8,7.8h51.3c4.3,0,7.8-3.5,7.8-7.8v-36.4C146.9,127.3,146.2,127.6,145.4,127.6z
			 M105.9,61.7h16.4c0.5,0,0.9,0.4,0.9,0.9c0,0.5-0.4,0.9-0.9,0.9h-16.4c-0.5,0-0.9-0.4-0.9-0.9C105,62.1,105.4,61.7,105.9,61.7z
			 M114.1,167.2c-2.2,0-3.9-1.7-3.9-3.9c0-2.1,1.7-3.9,3.9-3.9c2.1,0,3.9,1.7,3.9,3.9C118,165.5,116.3,167.2,114.1,167.2z"/>
	</g>
</g>
</svg>
