<?xml version="1.0" encoding="utf-8"?>
<!-- Generator: Adobe Illustrator 22.1.0, SVG Export Plug-In . SVG Version: 6.00 Build 0)  -->
<svg version="1.1" id="Layer_1" xmlns="http://www.w3.org/2000/svg" xmlns:xlink="http://www.w3.org/1999/xlink" x="0px" y="0px"
	 viewBox="0 0 186 214.8" style="enable-background:new 0 0 186 214.8;" xml:space="preserve">
<style type="text/css">
	.st0{fill:#C4C4C4;}
</style>
<g>
	<path class="st0" d="M93,11.5l83,47.9v95.8l-83,47.9l-83-47.9V59.5L93,11.5 M93,0L0,53.7v107.4l93,53.7l93-53.7V53.7L93,0L93,0z"/>
</g>
<g id="bovLCV.tif_1_">
	<g>
		<g>
			<path class="st0" d="M137,53.4c-29.7,0-59.4,0-89.1,0c-4.4,0-7,2.6-7,7c0,14.8,0,29.7,0,44.5c0,14.9,0,29.7,0,44.6
				c0,4.3,2.6,6.9,6.9,6.9c29.7,0,59.4,0,89.1,0c4.3,0,6.9-2.6,6.9-6.9c0-29.7,0-59.4,0-89.1C144,56,141.4,53.4,137,53.4z
				 M96.9,99.3c-1.6,3.5-4.2,6-7.5,7.8c-4.7,2.5-9.7,3.1-14.9,3.1c-1.3,0-2.5,0-3.9,0c0,6.5,0,13.2,0,20c-4.3,0-8.4,0-12.7,0
				c0-18.6,0-37.2,0-55.9c1.2-0.2,2.5-0.4,3.7-0.5c6.2-0.6,12.4-0.9,18.6-0.4c4.2,0.4,8.3,1.4,11.8,3.9C96,80.1,98,84,98.5,88.8
				C99,92.4,98.4,95.9,96.9,99.3z M121.6,129.7c-5,1.8-10.1,1.8-15.2,0.8c-2.2-0.4-4.3-1.3-6.4-1.9c-0.5-0.2-0.6-0.5-0.5-1
				c0.7-2.5,1.3-5,1.9-7.5c0.1-0.3,0.1-0.5,0.3-0.9c2.6,1.4,5.2,2.3,7.9,2.8c2,0.4,4,0.5,6-0.1c1.3-0.4,2.2-1.1,2.5-2.5
				c0.2-1.4-0.2-2.7-1.6-3.3c-1.9-0.9-3.8-1.7-5.7-2.4c-2.5-1-4.9-2.3-6.9-4.1c-4.1-3.7-4.3-9.1-2.2-13.4c2.2-4.3,5.9-6.4,10.5-7.4
				c5.5-1.1,10.9-0.5,16.1,1.6c0.1,0.1,0.2,0.1,0.4,0.2c-0.7,2.9-1.5,5.8-2.2,8.6c-2-0.6-3.9-1.3-5.9-1.8c-1.9-0.5-3.8-0.6-5.7,0.1
				c-1.2,0.4-2.1,1.2-2.2,2.6c-0.2,1.3,0.5,2.3,1.6,2.8c1.5,0.8,3,1.4,4.5,2c2.4,1,4.9,1.9,7,3.5c2.7,2.1,4.3,4.7,4.6,8.2
				C131,123,127.2,127.7,121.6,129.7z"/>
			<path class="st0" d="M79.3,83c-2.7-0.6-5.4-0.4-8.1,0c-0.6,0.1-0.6,0.4-0.6,0.9c0,2.6,0,5.2,0,7.8c0,2.7,0,5.4,0,8.2
				c3.6,0.5,7,0.6,10.3-0.9c3.5-1.5,5.3-4.9,4.9-9.4C85.5,86.3,82.9,83.7,79.3,83z"/>
		</g>
	</g>
</g>
</svg>
