<?xml version="1.0" encoding="utf-8"?>
<!-- Generator: Adobe Illustrator 22.1.0, SVG Export Plug-In . SVG Version: 6.00 Build 0)  -->
<svg version="1.1" id="Layer_1" xmlns="http://www.w3.org/2000/svg" xmlns:xlink="http://www.w3.org/1999/xlink" x="0px" y="0px"
	 viewBox="0 0 186 214.8" style="enable-background:new 0 0 186 214.8;" xml:space="preserve">
<style type="text/css">
	.st0{fill:#173541;}
</style>
<g>
	<g>
		<path class="st0" d="M93,11.5l83,47.9v95.8l-83,47.9l-83-47.9V59.5L93,11.5 M93,0L0,53.7v107.4l93,53.7l93-53.7V53.7L93,0L93,0z"
			/>
	</g>
	<g>
		<path class="st0" d="M153,106.3c0-8-10.1-15.7-25.5-20.4c3.6-15.7,2-28.2-5-32.2c-1.6-0.9-3.5-1.4-5.5-1.4v5.5
			c1.1,0,2.1,0.2,2.8,0.6c3.4,1.9,4.8,9.3,3.7,18.7c-0.3,2.3-0.7,4.8-1.3,7.3c-4.8-1.2-10.1-2.1-15.7-2.7
			c-3.3-4.6-6.8-8.7-10.3-12.4c8.1-7.5,15.6-11.6,20.8-11.6v-5.5l0,0c-6.8,0-15.7,4.8-24.7,13.3c-9-8.4-17.9-13.2-24.7-13.2v5.5
			c5.1,0,12.7,4.1,20.8,11.5c-3.5,3.6-6.9,7.8-10.2,12.3c-5.6,0.6-10.9,1.5-15.7,2.7c-0.6-2.5-1-4.9-1.3-7.2
			c-1.2-9.4,0.3-16.8,3.6-18.7c0.7-0.4,1.7-0.6,2.8-0.6v-5.5l0,0c-2.1,0-4,0.4-5.6,1.4c-6.9,4-8.5,16.5-4.9,32.2
			c-15.4,4.7-25.4,12.3-25.4,20.3c0,8,10.1,15.7,25.5,20.4c-3.6,15.7-2,28.2,5,32.2c1.6,0.9,3.5,1.4,5.6,1.4
			c6.8,0,15.7-4.8,24.7-13.3c9,8.4,17.9,13.2,24.7,13.2c2.1,0,4-0.4,5.6-1.4c6.9-4,8.5-16.5,4.9-32.2C143,121.9,153,114.3,153,106.3
			z M120.8,89.8c-0.9,3.2-2.1,6.5-3.3,9.8c-1-2-2.1-4-3.2-5.9c-1.1-2-2.3-3.9-3.6-5.8C114.2,88.4,117.6,89,120.8,89.8z M109.5,116.1
			c-1.9,3.3-3.9,6.5-6,9.4c-3.7,0.3-7.4,0.5-11.2,0.5c-3.7,0-7.5-0.2-11.1-0.5c-2.1-2.9-4.1-6.1-6-9.4c-1.9-3.2-3.6-6.5-5.1-9.8
			c1.5-3.3,3.3-6.6,5.1-9.9c1.9-3.3,3.9-6.5,6-9.4c3.7-0.3,7.4-0.5,11.2-0.5c3.7,0,7.5,0.2,11.1,0.5c2.1,2.9,4.1,6.1,6,9.4
			c1.9,3.2,3.6,6.5,5.1,9.8C113,109.6,111.3,112.9,109.5,116.1z M117.5,112.9c1.3,3.3,2.5,6.6,3.4,9.8c-3.2,0.8-6.7,1.5-10.2,2
			c1.2-1.9,2.4-3.9,3.6-5.9C115.4,116.9,116.5,114.9,117.5,112.9z M92.4,139.3c-2.3-2.4-4.6-5-6.9-7.9c2.2,0.1,4.5,0.2,6.8,0.2
			c2.3,0,4.6,0,6.9-0.2C97,134.3,94.7,136.9,92.4,139.3z M74,124.7c-3.5-0.5-6.9-1.2-10.1-2c0.9-3.2,2.1-6.5,3.3-9.8
			c1,2,2.1,4,3.2,5.9C71.6,120.9,72.8,122.9,74,124.7z M92.3,73.3c2.3,2.4,4.6,5,6.9,7.9c-2.2-0.1-4.5-0.2-6.8-0.2
			c-2.3,0-4.6,0-6.9,0.2C87.7,78.3,90,75.7,92.3,73.3z M74,87.8c-1.2,1.9-2.4,3.9-3.6,5.9c-1.1,2-2.2,4-3.2,5.9
			c-1.3-3.3-2.5-6.6-3.4-9.8C67,89,70.4,88.4,74,87.8z M51.6,118.8c-8.8-3.7-14.4-8.6-14.4-12.5s5.7-8.8,14.4-12.5
			c2.1-0.9,4.5-1.7,6.8-2.5c1.4,4.8,3.3,9.9,5.6,15.1c-2.3,5.1-4.1,10.2-5.5,15C56.1,120.6,53.8,119.7,51.6,118.8z M64.9,154.1
			c-3.4-1.9-4.8-9.3-3.7-18.7c0.3-2.3,0.7-4.8,1.3-7.3c4.8,1.2,10.1,2.1,15.7,2.7c3.3,4.6,6.8,8.7,10.3,12.4
			c-8.1,7.5-15.6,11.6-20.8,11.6C66.6,154.8,65.6,154.6,64.9,154.1z M123.6,135.3c1.2,9.4-0.3,16.8-3.6,18.7
			c-0.7,0.4-1.7,0.6-2.8,0.6c-5.1,0-12.7-4.1-20.8-11.5c3.5-3.6,6.9-7.8,10.2-12.3c5.6-0.6,10.9-1.5,15.7-2.7
			C122.8,130.6,123.3,133,123.6,135.3z M133.1,118.8c-2.1,0.9-4.5,1.7-6.8,2.5c-1.4-4.8-3.3-9.9-5.6-15.1c2.3-5.1,4.1-10.2,5.5-15
			c2.4,0.8,4.8,1.6,6.9,2.5c8.8,3.7,14.4,8.6,14.4,12.5C147.5,110.2,141.8,115.1,133.1,118.8z"/>
		<path class="st0" d="M67.6,52.4L67.6,52.4L67.6,52.4z"/>
		<circle class="st0" cx="92.3" cy="106.3" r="11.3"/>
		<path class="st0" d="M117,52.3L117,52.3L117,52.3z"/>
	</g>
</g>
</svg>
