<?xml version="1.0" encoding="utf-8"?>
<!-- Generator: Adobe Illustrator 22.1.0, SVG Export Plug-In . SVG Version: 6.00 Build 0)  -->
<svg version="1.1" id="Layer_1" xmlns="http://www.w3.org/2000/svg" xmlns:xlink="http://www.w3.org/1999/xlink" x="0px" y="0px"
	 viewBox="0 0 186 214.8" style="enable-background:new 0 0 186 214.8;" xml:space="preserve">
<style type="text/css">
	.st0{fill:#C4C4C4;}
</style>
<g>
	<path class="st0" d="M52.1,140.2c-4.1,4.5-9.9,6.2-12.4,4.8c-2.7-1.5-1.6-8.2,3.5-13c3.1-2.9,7.1-5.6,9.7-7.3
		c0.6-0.4,1.5-0.9,2.6-1.5c0.2-0.1,0.3-0.2,0.3-0.2c0.2-0.1,0.4-0.3,0.6-0.4C58.3,129.4,56.5,135.4,52.1,140.2L52.1,140.2z
		 M82.3,119.6c-1.4,3.5-4.5,12.5-6.3,12c-1.6-0.4-2.5-7.2-0.3-14c1.1-3.4,3.5-7.4,4.9-9c2.3-2.5,4.7-3.4,5.4-2.3
		C86.7,107.7,83.2,117.4,82.3,119.6z M107.2,131.5c-0.6,0.3-1.2,0.5-1.4,0.4c-0.2-0.1,0.3-0.5,0.3-0.5s3.1-3.3,4.4-4.9
		c0.7-0.9,1.5-1.9,2.4-3.1v0.3C112.8,127.7,108.9,130.4,107.2,131.5z M126.4,127.1c-0.4-0.3-0.4-1.4,1.1-4.6
		c0.6-1.3,1.9-3.5,4.3-5.5c0.3,0.8,0.4,1.7,0.4,2.4C132.2,124.5,128.6,126.4,126.4,127.1z M148.8,108.5c-5,0-9.4,1.2-13,3
		c-1.3-2.7-2.7-5-2.9-6.7c-0.3-2-0.6-3.3-0.3-5.7c0.3-2.4,1.7-5.8,1.7-6.1c0-0.3-0.3-1.5-3.2-1.5c-2.9,0-5.4,0.6-5.7,1.3
		c-0.3,0.8-0.8,2.5-1.2,4.3c-0.5,2.6-5.8,12-8.8,16.9c-1-1.9-1.8-3.6-2-4.9c-0.3-2-0.6-3.3-0.3-5.7s1.7-5.8,1.7-6.1
		c0-0.3-0.3-1.5-3.2-1.5s-5.4,0.6-5.7,1.3c-0.3,0.8-0.6,2.6-1.2,4.3c-0.6,1.7-7.6,17.4-9.4,21.4c-0.9,2.1-1.7,3.7-2.3,4.9
		c-0.6,1.1,0,0.1-0.1,0.2c-0.5,1-0.8,1.5-0.8,1.5v0c-0.4,0.7-0.8,1.4-1,1.4c-0.1,0-0.4-1.9,0.1-4.5c1-5.4,3.6-13.9,3.5-14.2
		c0-0.1,0.5-1.6-1.6-2.4c-2.1-0.8-2.8,0.5-2.9,0.5s-0.3,0.4-0.3,0.4s2.3-9.5-4.4-9.5c-4.2,0-9.9,4.5-12.7,8.7
		c-1.8,1-5.6,3.1-9.7,5.3c-1.5,0.8-3.1,1.7-4.7,2.6l-0.3-0.3c-8-8.6-22.9-14.6-22.3-26.1c0.2-4.2,1.7-15.2,28.5-28.6
		c22-11,39.6-7.9,42.7-1.3c4.4,9.5-9.4,27.3-32.3,29.9c-8.7,1-13.3-2.4-14.4-3.7c-1.2-1.3-1.4-1.4-1.8-1.1c-0.7,0.4-0.3,1.6,0,2.3
		c0.7,1.8,3.5,4.9,8.3,6.5c4.2,1.4,14.4,2.1,26.8-2.6c13.8-5.4,24.7-20.2,21.5-32.7C111.8,47.1,90.8,43,71,50
		c-11.8,4.2-24.6,10.8-33.8,19.4c-11,10.2-12.7,19.2-12,22.9c2.6,13.2,20.8,21.8,28.1,28.2c-0.4,0.2-0.7,0.4-1,0.6
		c-3.7,1.8-17.6,9.1-21,16.8c-3.9,8.7,0.6,15,3.7,15.8c9.4,2.6,19-2.1,24.2-9.8c5.2-7.7,4.5-17.7,2.2-22.3l-0.1-0.2l2.9-1.7
		c1.9-1.1,3.7-2.1,5.3-3c-0.9,2.4-1.5,5.3-1.9,9.5c-0.4,4.9,1.6,11.3,4.3,13.9c1.2,1.1,2.6,1.1,3.5,1.1c3.1,0,4.5-2.6,6-5.6
		c1.9-3.7,3.6-8.1,3.6-8.1s-2.1,11.7,3.7,11.7c2.1,0,4.2-2.7,5.2-4.1v0c0,0,0.1-0.1,0.2-0.3c0.2-0.3,0.3-0.5,0.3-0.5v-0.1
		c0.8-1.5,2.7-4.8,5.5-10.3c3.6-7.1,7.1-16.1,7.1-16.1s0.3,2.2,1.4,5.8c0.6,2.1,2,4.5,3,6.7c-0.8,1.2-1.3,1.9-1.3,1.9l0,0
		c-0.7,0.9-1.4,1.9-2.2,2.8c-2.9,3.4-6.3,7.3-6.7,8.5c-0.5,1.3-0.4,2.3,0.6,3.1c0.8,0.6,2.1,0.7,3.5,0.6c2.6-0.2,4.4-0.8,5.3-1.2
		c1.4-0.5,3-1.3,4.5-2.4c2.8-2.1,4.5-5,4.4-9c-0.1-2.2-0.8-4.3-1.7-6.3c0.3-0.4,0.5-0.7,0.8-1.1c4.4-6.5,7.9-13.6,7.9-13.6
		s0.3,2.2,1.4,5.8c0.5,1.8,1.6,3.8,2.6,5.8c-4.2,3.4-6.8,7.3-7.7,9.9c-1.7,4.8-0.4,6.9,2.1,7.4c1.1,0.2,2.7-0.3,3.8-0.8
		c1.5-0.5,3.2-1.3,4.9-2.5c2.8-2.1,5.5-5,5.4-8.9c-0.1-1.8-0.6-3.6-1.2-5.3c3.5-1.5,8.1-2.3,13.9-1.6c12.5,1.5,15,9.3,14.5,12.5
		c-0.5,3.3-3.1,5.1-4,5.6c-0.9,0.5-1.2,0.7-1.1,1.1c0.1,0.6,0.5,0.6,1.3,0.4c1-0.2,6.6-2.7,6.8-8.7
		C169.1,116.8,161.8,108.4,148.8,108.5L148.8,108.5z"/>
	<g>
		<path class="st0" d="M93,11.5l83,47.9v95.8l-83,47.9l-83-47.9V59.5L93,11.5 M93,0L0,53.7v107.4l93,53.7l93-53.7V53.7L93,0L93,0z"
			/>
	</g>
</g>
</svg>
