<?xml version="1.0" encoding="utf-8"?>
<!-- Generator: Adobe Illustrator 22.1.0, SVG Export Plug-In . SVG Version: 6.00 Build 0)  -->
<svg version="1.1" id="Layer_1" xmlns="http://www.w3.org/2000/svg" xmlns:xlink="http://www.w3.org/1999/xlink" x="0px" y="0px"
	 viewBox="0 0 186 214.8" style="enable-background:new 0 0 186 214.8;" xml:space="preserve">
<style type="text/css">
	.st0{fill:#173541;}
</style>
<g>
	<path class="st0" d="M93,11.5l83,47.9v95.8l-83,47.9l-83-47.9V59.5L93,11.5 M93,0L0,53.7v107.4l93,53.7l93-53.7V53.7L93,0L93,0z"/>
</g>
<g id="O1X5OP.tif_1_">
	<g>
		<path class="st0" d="M153.2,157.7c-0.4,1.7-1.1,3.2-2.5,4.3c-2.7,2.2-6.3,2-8.9-0.6c-5.1-5.1-10.2-10.2-15.3-15.2
			c-1.7-1.7-3.5-3.4-5.3-5.2c3.9-2.4,6.9-5.5,9.1-9.5c1.4,1.4,2.7,2.8,4,4.1c5.1,5.1,10.2,10.3,15.4,15.4c1.5,1.5,2.9,3,3.4,5.2
			C153.2,156.6,153.2,157.2,153.2,157.7z"/>
		<path class="st0" d="M83.7,118.9c0-13.3,10.6-24,24-24c13.2,0,24,10.7,24,23.9c0,13.3-10.7,24-24.1,24
			C94.3,142.9,83.7,132.2,83.7,118.9z M107.6,136.3c9.5,0,17.3-7.7,17.5-17c0.2-9.7-7.8-17.8-17.4-17.8c-9.5,0-17.5,7.8-17.5,17.3
			C90.2,128.4,98,136.3,107.6,136.3z"/>
	</g>
</g>
<g>
	<g>
		<path class="st0" d="M125.1,68.3c-1.4-1.6-2.8-3.2-4.4-4.6l-0.1-0.1l-0.2-0.2c-1.2-1.1-2.5-2.1-3.8-3.1l-0.2-0.1
			c-17.6-13-41.5-13-59.1,0l-0.2,0.1c-1.3,1-2.6,2-3.8,3.1c-0.1,0.1-0.1,0.1-0.2,0.2L53,63.6c-1.5,1.5-3,3-4.3,4.6
			c-15.2,18.3-15.3,44.7-0.4,63.2c1.4,1.8,3,3.5,4.7,5c0.2,0.2,0.3,0.3,0.5,0.5l0,0c12.9,11.6,30.9,15.7,47.5,10.8
			c0.5-0.1,0.7-0.6,0.6-1.1c-0.1-0.3-0.3-0.5-0.7-0.6c-3.8-0.8-7.4-2.4-10.6-4.7c-1.8-1.4-3.4-2.9-4.9-4.5c-0.3-0.4-0.8-0.4-1.2-0.1
			c-0.2,0.2-0.3,0.4-0.3,0.7v4.1c-5.7-1.4-10.8-6.7-14.3-14.5c2.7-1.7,5.6-3,8.7-3.8c0.4-0.1,0.7-0.5,0.6-1
			c-0.1-1.1-0.2-2.3-0.2-3.4c0-0.5-0.4-0.9-0.9-0.8c-0.1,0-0.1,0-0.2,0c-3.5,0.9-6.9,2.3-10,4.1c-2-6-3.1-12.2-3.3-18.5h18.2
			c0.3,0,0.6-0.1,0.7-0.4c1.7-2.5,3.8-4.8,6.1-6.6c0.2-0.2,0.3-0.4,0.3-0.7V84.4l0,0c5.9-0.5,11.6-2.3,16.6-5.4v0.2
			c1.1,3.6,1.9,7.3,2.3,11c0.1,0.4,0.4,0.7,0.8,0.8c1,0.1,2,0.3,2.9,0.5c0.5,0.1,0.9-0.2,1-0.7c0-0.1,0-0.2,0-0.3
			c-0.6-4.8-1.7-9.5-3.2-14.1l-0.1-0.2h0.1c2.1-1.7,4.1-3.7,5.8-5.8l0.1-0.2c0.3-0.4,0.7-0.9,1-1.3c1.1,1.1,2.1,2.2,3.1,3.4
			c6,7.2,9.5,16.2,10.1,25.5h-3.1c-0.5,0-0.9,0.4-0.9,0.9c0,0.2,0.1,0.4,0.2,0.6c1.3,1.4,2.5,2.9,3.5,4.5h0.1c0,0.1,0,0.1,0,0.2
			c1.4,2.3,2.6,4.8,3.3,7.4c0.1,0.5,0.6,0.7,1.1,0.6c0.3-0.1,0.5-0.3,0.6-0.6C138.8,96.1,135,80.2,125.1,68.3z M60.8,65.1
			c0.1,0,0.1-0.1,0.1-0.1c4.3-3.2,9.1-5.5,14.3-6.9C74,59,73,60,72,61.1c-2.7,3-4.8,6.4-6.5,10.1L65.4,71c-1.4-1.2-2.7-2.6-3.9-4.1
			c-0.1-0.1-0.1-0.2-0.2-0.2c-0.3-0.4-0.6-0.9-1-1.3L60.8,65.1z M53.3,72.1c1-1.2,2-2.3,3.1-3.4c0.3,0.5,0.7,0.9,1,1.3l0.1,0.2
			c1.7,2.1,3.6,4.1,5.8,5.8h0.1l-0.1,0.2c-2.3,6.9-3.6,14.1-3.8,21.3H43.3C43.8,88.3,47.3,79.3,53.3,72.1L53.3,72.1z M58,130.3
			c-0.4,0.5-0.8,1-1.2,1.5c-1.4-1.3-2.7-2.7-3.8-4.1c-5.6-6.8-8.9-15.2-9.6-24h16.3c0.3,7.2,1.7,14.4,4.1,21.2
			C61.6,126.5,59.8,128.3,58,130.3L58,130.3z M65.8,129.8c1.6,3.4,3.7,6.5,6.2,9.3c1,1.1,2.1,2.2,3.2,3.1c-5-1.4-9.8-3.7-14-6.8
			l-0.4-0.3c0.4-0.5,0.8-1,1.2-1.5C63.1,132.3,64.4,131,65.8,129.8L65.8,129.8z M83.9,97.7H64.3c0.1-6.3,1.1-12.6,3-18.6v-0.2
			c5,3.1,10.8,5,16.7,5.4V97.7z M83.9,79.1c-5.3-0.5-10.4-2.3-14.8-5.2c3.5-8.1,8.5-13.8,14.3-15.4l0,0l0.4-0.1L83.9,79.1z
			 M89.9,79.1L89.9,79.1V58.4l0,0l0.4,0.1l0,0c5.8,1.6,10.8,7.3,14.3,15.4C100.2,76.8,95.1,78.6,89.9,79.1L89.9,79.1z M112.4,66.7
			c-0.1,0.1-0.1,0.2-0.2,0.2c-1.2,1.5-2.4,2.9-3.8,4.1l-0.1,0.1c-1.7-3.6-3.8-7-6.5-10l0,0c-1-1.1-2.1-2.1-3.2-3.1
			c5.1,1.4,9.9,3.8,14.2,6.9c0,0.1,0.1,0.1,0.2,0.1l0.4,0.3C113,65.8,112.7,66.3,112.4,66.7z"/>
	</g>
</g>
</svg>
