<?xml version="1.0" encoding="utf-8"?>
<!-- Generator: Adobe Illustrator 22.1.0, SVG Export Plug-In . SVG Version: 6.00 Build 0)  -->
<svg version="1.1" id="Layer_1" xmlns="http://www.w3.org/2000/svg" xmlns:xlink="http://www.w3.org/1999/xlink" x="0px" y="0px"
	 viewBox="0 0 186 214.8" style="enable-background:new 0 0 186 214.8;" xml:space="preserve">
<style type="text/css">
	.st0{fill:#C4C4C4;}
</style>
<g id="rmIMWD.tif">
	<g>
		<path class="st0" d="M53,85.9c-1.5,0-3,0-4.6,0c0-9.3,0-18.5,0-27.9c0.6,0,1.1,0,1.6,0c28.6,0,57.3,0,85.9,0
			c1.3,0,1.6,0.4,1.5,1.6c-0.1,8.4,0,16.8,0,25.2c0,1-0.2,1.4-1.3,1.3c-1.1-0.1-2.3,0-3.5,0c0.4-3.2,0-6.1-1.3-8.8
			c-2.9-6.1-7.7-9.6-14.5-9.8c-5.6-0.2-11.2,0-17,0c0,0.4-0.1,0.8-0.1,1.2c0,22.3,0,44.6,0,66.8c0,8.6,6.6,15.7,15.2,16.4
			c0.4,0,0.7,0.1,1.2,0.2c0,1.3,0.1,2.6,0,3.9c0,0.2-0.7,0.6-1.1,0.6c-2.9,0-5.9,0-8.8,0c-11.8,0-23.5,0-35.3,0
			c-1.2,0-1.7-0.3-1.6-1.6c0.1-0.9-0.3-2,0.2-2.6c0.4-0.5,1.6-0.5,2.4-0.6c8.2-1.5,13.8-8.2,13.9-16.6c0-22.2,0-44.3,0-66.5
			c0-1-0.3-1.3-1.3-1.3c-4.9,0-9.8,0.1-14.7,0c-9.6-0.3-17.8,7.8-17,18C53,85.4,53,85.6,53,85.9z"/>
	</g>
</g>
<g>
	<path class="st0" d="M93,11.5l83,47.9v95.8l-83,47.9l-83-47.9V59.5L93,11.5 M93,0L0,53.7v107.4l93,53.7l93-53.7V53.7L93,0L93,0z"/>
</g>
</svg>