<?xml version="1.0" encoding="utf-8"?>
<!-- Generator: Adobe Illustrator 22.1.0, SVG Export Plug-In . SVG Version: 6.00 Build 0)  -->
<svg version="1.1" id="Layer_1" xmlns="http://www.w3.org/2000/svg" xmlns:xlink="http://www.w3.org/1999/xlink" x="0px" y="0px"
	 viewBox="0 0 186 214.8" style="enable-background:new 0 0 186 214.8;" xml:space="preserve">
<style type="text/css">
	.st0{fill:#C4C4C4;}
</style>
<g>
	<path class="st0" d="M93,11.5l83,47.9v95.8l-83,47.9l-83-47.9V59.5L93,11.5 M93,0L0,53.7v107.4l93,53.7l93-53.7V53.7L93,0L93,0z"/>
</g>
<g>
	<rect x="45" y="75.4" class="st0" width="26.9" height="18"/>
	<rect x="76.5" y="75.4" class="st0" width="26.9" height="18"/>
	<rect x="67.3" y="98.4" class="st0" width="18.1" height="12"/>
	<rect x="45" y="98.4" class="st0" width="18.1" height="12"/>
	<rect x="67.3" y="114.4" class="st0" width="18.1" height="12"/>
	<rect x="45" y="114.4" class="st0" width="18.1" height="12"/>
	<path class="st0" d="M131.3,96l-9.9-10.5l24.8-23.3l9.9,10.5L131.3,96z M149.2,74.5c0.2,0,0.5-0.1,0.7-0.2l1.2-1.1
		c0.4-0.3,0.4-0.9,0-1.3l-0.6-0.6c-0.3-0.4-0.9-0.4-1.3,0l-1.2,1.1c-0.2,0.2-0.3,0.4-0.3,0.6c0,0.2,0.8,1.3,0.8,1.3
		C148.7,74.4,148.9,74.4,149.2,74.5L149.2,74.5z M131,90.7c0.3,0.4,0.9,0.4,1.3,0l13.9-13.1c0.2-0.2,0.3-0.4,0.3-0.6
		c0-0.2-0.1-0.5-0.2-0.6l-0.6-0.6c-0.3-0.4-0.9-0.4-1.3,0l-13.9,13.1c-0.2,0.2-0.3,0.4-0.3,0.6c0,0.2,0.1,0.5,0.2,0.6L131,90.7z
		 M147.3,61.2l9.9,10.5l2.9-2.7l-9.9-10.5L147.3,61.2z M155.2,53.8c0.6-0.6,1.4-0.9,2.2-0.8c0.8,0,1.6,0.4,2.2,1l5.6,5.9
		c1.2,1.3,1.1,3.2-0.1,4.4l-3.9,3.7l-9.9-10.5L155.2,53.8z M157.3,55.7l-2,1.9l6,6.3l2-1.9L157.3,55.7z M117.2,101.3
		c-0.6,0.2-1.2,0-1.6-0.4c-0.4-0.4-0.5-1.1-0.3-1.6l4.7-12.4l9.9,10.5L117.2,101.3z M121.5,98l5-1.6l-5.7-6.1l-1.9,4.9L121.5,98z
		 M121.5,98"/>
	<path class="st0" d="M140.7,90.7v40.9h-24.6h-6.4H71.2c0,0-2.2,0-6.4,0H40.2v-60c0-0.8,0.7-1.5,1.5-1.5h92.6l4.9-4.7c0,0,0,0-0.1,0
		h0H41.7h0c-3.2,0-5.8,2.4-6.1,5.5c0,0.2,0,0.4,0,0.6v16c0,0.8,0,1.7,0,2.6v49.1c0,3.4,2.8,6.1,6.2,6.1h23.1c3.4,0,6.5,0,6.5,0h8v9
		c0,0.5-0.4,0.9-0.9,0.9H66.4h-1.8c-0.5,0-0.9,0.4-0.9,0.9v3.8c0,0.5,0.4,0.9,0.9,0.9h1.8h48h1.8c0.5,0,0.9-0.4,0.9-0.9v-3.8
		c0-0.5-0.4-0.9-0.9-0.9h-1.8h-11.9c-0.5,0-0.9-0.4-0.9-0.9v-9h8h6.5h23.1c3.4,0,6.2-2.8,6.2-6.1V91.1v-3.5v-1.3L140.7,90.7z
		 M90.4,140.1c-1.5,0-2.8-1.2-2.8-2.8c0-1.5,1.2-2.8,2.8-2.8c1.5,0,2.8,1.2,2.8,2.8C93.2,138.9,92,140.1,90.4,140.1z"/>
	<polygon class="st0" points="120,83.4 120.1,83.4 120.1,83.4 128.6,75.4 108.1,75.4 108.1,93.4 115.3,93.4 	"/>
	<path class="st0" d="M118,103.7c-0.4,0.1-0.8,0.2-1.2,0.2c-1.1,0-2.2-0.4-2.9-1.3c-1.1-1.1-1.4-2.8-0.8-4.2l0,0l0,0H90v28h45v-28
		h-4.4L118,103.7z"/>
</g>
</svg>
