<?xml version="1.0" encoding="utf-8"?>
<!-- Generator: Adobe Illustrator 22.1.0, SVG Export Plug-In . SVG Version: 6.00 Build 0)  -->
<svg version="1.1" id="Layer_1" xmlns="http://www.w3.org/2000/svg" xmlns:xlink="http://www.w3.org/1999/xlink" x="0px" y="0px"
	 viewBox="0 0 186 214.8" style="enable-background:new 0 0 186 214.8;" xml:space="preserve">
<style type="text/css">
	.st0{fill:#C4C4C4;}
</style>
<g>
	<path class="st0" d="M93,11.5l83,47.9v95.8l-83,47.9l-83-47.9V59.5L93,11.5 M93,0L0,53.7v107.4l93,53.7l93-53.7V53.7L93,0L93,0z"/>
</g>
<g>
	<path class="st0" d="M136.1,68.2H49.8c-2.4,0-4.3,1.9-4.3,4.4v57.1c0,2.4,1.9,4.4,4.3,4.4H71c0-0.1,0-0.2,0-0.3
		c0.4-2.9,2-5.5,4.5-7.1c0.3-0.2,0.6-0.4,1-0.6H62.2V76.2h66.6v48.4c1.3,1.7,2.1,3.9,2.1,6.2v3.4h5.2c2.4,0,4.4-2,4.4-4.4V72.6
		C140.5,70.2,138.6,68.2,136.1,68.2z M53.9,104.8c-2,0-3.6-1.6-3.6-3.6s1.6-3.7,3.6-3.7s3.7,1.6,3.7,3.7
		C57.5,103.2,55.9,104.8,53.9,104.8z M136.1,106.1c0,0.8-0.6,1.4-1.4,1.4s-1.4-0.6-1.4-1.4v-10c0-0.8,0.6-1.4,1.4-1.4
		s1.4,0.6,1.4,1.4V106.1z"/>
	<path class="st0" d="M120.6,126.1c-1.6,0-3.1,0.9-3.9,2.2v-0.1c0-2.5-2.1-4.6-4.6-4.6c-1.6,0-3.1,0.9-3.9,2.2v-0.1
		c0-2.5-2.1-4.6-4.6-4.6c-1.6,0-3.1,0.9-3.9,2.2v-15.6c0-1.2-0.5-2.4-1.4-3.3c-0.9-0.9-2-1.3-3.3-1.3l0,0c-2.5,0-4.6,2.1-4.6,4.6
		v28.5c0,0.3-0.1,0.5-0.4,0.6c-0.3,0.1-0.5,0.1-0.7-0.1l-4.7-4.6c-1.6-1.6-4.1-1.8-5.9-0.6c-1.1,0.7-1.8,1.9-2,3.2
		c-0.2,1.3,0.2,2.6,1,3.6l11.6,14c3.3,4,8.2,6.3,13.3,6.3h7.4c4.1,0,7.9-1.6,10.7-4.4c2.9-2.9,4.4-6.7,4.4-10.7v-12.7
		C125.2,128.2,123.1,126.1,120.6,126.1z"/>
	<path class="st0" d="M97.3,95.9v-5c0-1.2-1-2.2-2.2-2.2s-2.2,1-2.2,2.2v5c0,1.2,1,2.2,2.2,2.2C96.3,98.2,97.3,97.2,97.3,95.9z"/>
	<path class="st0" d="M84.5,99.4c0.4,0.7,1.2,1.1,1.9,1.1c0.4,0,0.8-0.1,1.1-0.3c1.1-0.6,1.4-2,0.8-3l-2.5-4.3c-0.6-1.1-2-1.4-3-0.8
		c-1.1,0.6-1.4,2-0.8,3L84.5,99.4z"/>
	<path class="st0" d="M103.8,100.5c0.8,0,1.5-0.4,1.9-1.1l2.5-4.3c0.6-1.1,0.3-2.4-0.8-3c-1.1-0.6-2.4-0.3-3,0.8l-2.5,4.3
		c-0.6,1.1-0.3,2.4,0.8,3C103,100.4,103.4,100.5,103.8,100.5z"/>
</g>
</svg>
