<?xml version="1.0" encoding="utf-8"?>
<!-- Generator: Adobe Illustrator 22.1.0, SVG Export Plug-In . SVG Version: 6.00 Build 0)  -->
<svg version="1.1" id="Layer_1" xmlns="http://www.w3.org/2000/svg" xmlns:xlink="http://www.w3.org/1999/xlink" x="0px" y="0px"
	 viewBox="0 0 229.3 229.3" style="enable-background:new 0 0 229.3 229.3;" xml:space="preserve">
<style type="text/css">
	.st0{fill:#FFFFFF;}
</style>
<g>
	<g>
		<rect x="66.6" y="82" class="st0" width="26.9" height="18"/>
		<rect x="98.1" y="82" class="st0" width="26.9" height="18"/>
		<rect x="88.9" y="105" class="st0" width="18.1" height="12"/>
		<polygon class="st0" points="134.6,105 111.6,105 111.6,133 156.6,133 156.6,105 152.2,105 		"/>
		<rect x="66.6" y="105" class="st0" width="18.1" height="12"/>
		<rect x="88.9" y="121" class="st0" width="18.1" height="12"/>
		<rect x="66.6" y="121" class="st0" width="18.1" height="12"/>
		<g>
			<path class="st0" d="M165,104.5c-0.9,0-1.7-0.3-2.4-0.8c-0.1-0.1-0.2-0.2-0.4-0.4v34.9h-24.6h0h-6.4h0H92.7h0c0,0-2.2,0-6.4,0
				c0,0,0,0,0,0H61.8V97.3V78.1c0-0.8,0.7-1.5,1.5-1.5h4.9h72.9v-3.3c0-0.5,0.1-0.9,0.3-1.3H63.3h0h0c-3.2,0-5.8,2.4-6.1,5.5
				c0,0.2,0,0.4,0,0.6v14.7v1.3c0,0.8,0,1.7,0,2.6v0.9v48.2c0,0.6,0.1,1.2,0.3,1.8c0.8,2.5,3.1,4.3,5.9,4.3h0h23.1c0,0,0,0,0,0
				c3.4,0,6.5,0,6.5,0h0h8v9c0,0.5-0.4,0.9-0.9,0.9H88h0h-1.8h0c-0.5,0-0.9,0.4-0.9,0.9v3.8c0,0.5,0.4,0.9,0.9,0.9h0H88h0h48h0h1.8
				h0c0.5,0,0.9-0.4,0.9-0.9v-3.8c0-0.5-0.4-0.9-0.9-0.9h0H136h0h-11.9c-0.5,0-0.9-0.4-0.9-0.9v-9h8h0h6.5h0h23.1h0
				c2.8,0,5.1-1.8,5.9-4.3c0.2-0.6,0.3-1.2,0.3-1.8v-41.4H165z M114.5,145c-0.4,0.8-1.1,1.5-2,1.6c-0.2,0-0.4,0.1-0.6,0.1
				c-0.2,0-0.4,0-0.6-0.1c-0.9-0.2-1.6-0.8-2-1.6c-0.1-0.3-0.2-0.7-0.2-1.1c0-0.4,0.1-0.7,0.2-1.1c0.4-0.8,1.1-1.5,2-1.6
				c0.2,0,0.4-0.1,0.6-0.1c0.2,0,0.4,0,0.6,0.1c0.9,0.2,1.6,0.8,2,1.6c0.1,0.3,0.2,0.7,0.2,1.1C114.8,144.3,114.7,144.7,114.5,145z"
				/>
		</g>
		<g>
			<path class="st0" d="M152,99c-2.9-2.6-4.7-4.5-5.7-5.8c-0.5-0.7-0.7-1.4-0.7-2.2c0-0.8,0.3-1.6,0.7-2.2c0.3-0.5,0.9-1.2,1.7-2.2
				c0.3-0.4,0.6-0.7,0.8-1c-0.1-0.2-0.2-0.5-0.3-0.7l-4.5-0.7c-0.9-0.1-1.7-0.6-2.3-1.4c-0.2-0.3-0.3-0.5-0.5-0.8h-11.7h0v18h0h7.2
				h16.9C153.1,99.8,152.5,99.5,152,99z"/>
		</g>
	</g>
	<g>
		<path class="st0" d="M193.3,72.7c-0.2-0.2-0.4-0.4-0.7-0.4l-6-0.9c-0.3-1-0.8-2.1-1.3-3.2c0.4-0.5,1-1.3,1.8-2.3
			c0.8-1,1.3-1.7,1.7-2.2c0.2-0.2,0.3-0.5,0.3-0.7c0-0.3-0.1-0.5-0.2-0.7c-0.8-1.1-2.6-3-5.4-5.5c-0.3-0.2-0.5-0.3-0.8-0.3
			c-0.3,0-0.6,0.1-0.8,0.3l-4.6,3.5c-0.9-0.5-1.9-0.9-2.9-1.2l-0.9-6c0-0.3-0.1-0.5-0.4-0.7c-0.2-0.2-0.5-0.3-0.8-0.3H165
			c-0.6,0-1,0.3-1.2,0.9c-0.3,1.1-0.6,3.1-0.9,6.1c-1,0.3-2,0.7-3,1.2l-4.5-3.5c-0.3-0.2-0.6-0.3-0.8-0.3c-0.5,0-1.5,0.8-3.1,2.3
			c-1.6,1.6-2.6,2.7-3.2,3.5c-0.2,0.3-0.3,0.5-0.3,0.7c0,0.3,0.1,0.5,0.3,0.8c1.5,1.8,2.6,3.3,3.5,4.5c-0.5,1-1,2-1.3,3l-6.1,0.9
			c-0.2,0-0.4,0.2-0.6,0.4c-0.2,0.2-0.3,0.5-0.3,0.7v7.2c0,0.3,0.1,0.5,0.3,0.8c0.2,0.2,0.4,0.4,0.7,0.4l6,0.9
			c0.3,1.1,0.7,2.1,1.3,3.2c-0.4,0.5-1,1.3-1.8,2.3c-0.8,1-1.3,1.7-1.7,2.2c-0.2,0.2-0.3,0.5-0.3,0.7c0,0.3,0.1,0.5,0.2,0.7
			c0.8,1.2,2.6,3,5.4,5.5c0.2,0.2,0.5,0.4,0.8,0.4c0.3,0,0.6-0.1,0.8-0.3l4.6-3.5c0.9,0.5,1.9,0.9,2.9,1.2l0.9,6
			c0,0.3,0.1,0.5,0.4,0.7c0.2,0.2,0.5,0.3,0.8,0.3h7.2c0.6,0,1-0.3,1.2-0.9c0.3-1.1,0.6-3.1,0.9-6.1c1-0.3,2-0.7,3-1.2l4.5,3.5
			c0.3,0.2,0.6,0.3,0.8,0.3c0.5,0,1.5-0.8,3.1-2.3c1.6-1.5,2.6-2.7,3.2-3.5c0.2-0.2,0.3-0.5,0.3-0.7c0-0.3-0.1-0.6-0.3-0.8
			c-1.6-1.9-2.7-3.4-3.5-4.5c0.4-0.8,0.9-1.8,1.3-3l6-0.9c0.3,0,0.5-0.2,0.7-0.4c0.2-0.2,0.3-0.5,0.3-0.7v-7.2
			C193.6,73.1,193.5,72.9,193.3,72.7L193.3,72.7z M174.5,82.9c-1.6,1.6-3.6,2.4-5.9,2.4c-2.3,0-4.3-0.8-5.9-2.4
			c-1.6-1.6-2.4-3.6-2.4-5.9c0-2.3,0.8-4.3,2.4-5.9c1.6-1.6,3.6-2.4,5.9-2.4c2.3,0,4.3,0.8,5.9,2.4c1.6,1.6,2.4,3.6,2.4,5.9
			C176.9,79.3,176.1,81.2,174.5,82.9L174.5,82.9z M174.5,82.9"/>
	</g>
	<g>
		<path class="st0" d="M195.7,82.2c-0.1,0.2-0.2,0.4-0.4,0.6c-0.6,0.8-1.4,1.3-2.3,1.4l-4.6,0.7c-0.1,0.2-0.1,0.3-0.2,0.4
			c0.7,0.9,1.5,1.9,2.5,3.2c0.6,0.7,0.9,1.5,0.9,2.4c0,0.4-0.1,0.8-0.2,1.1l23.7,23.7l-99.3,99.3L14.1,113.5l99.3-99.3l39.9,39.9
			c0.4-0.1,0.7-0.2,1.1-0.2c0.8,0,1.6,0.3,2.4,0.8l3.3,2.6c0.1,0,0.2-0.1,0.3-0.1c0.3-2.3,0.6-3.9,0.8-4.9c0.3-1.1,1-2,1.9-2.4
			L113.5,0L0,113.5l115.8,115.8l113.5-113.5L195.7,82.2z"/>
	</g>
</g>
</svg>
