<?xml version="1.0" encoding="utf-8"?>
<!-- Generator: Adobe Illustrator 22.1.0, SVG Export Plug-In . SVG Version: 6.00 Build 0)  -->
<svg version="1.1" id="Layer_1" xmlns="http://www.w3.org/2000/svg" xmlns:xlink="http://www.w3.org/1999/xlink" x="0px" y="0px"
	 viewBox="0 0 186 214.8" style="enable-background:new 0 0 186 214.8;" xml:space="preserve">
<style type="text/css">
	.st0{fill:#C4C4C4;}
</style>
<g>
	<path class="st0" d="M93,11.5l83,47.9v95.8l-83,47.9l-83-47.9V59.5L93,11.5 M93,0L0,53.7v107.4l93,53.7l93-53.7V53.7L93,0L93,0z"/>
</g>
<g>
	<g>
		<path class="st0" d="M147.2,58.4H49.7c-3.4,0-6.1,2.8-6.1,6.2v16c0,2.1,0,5.1,0,6.4h4.7c0-2.1,0-4.2,0-6.4v-16
			c0-0.8,0.7-1.5,1.5-1.5h97.5c0.8,0,1.5,0.7,1.5,1.5v60H79.2c0,0-2.2,0-6.4,0v13.8c3.4,0,6.5,0,6.5,0h9.5v9c0,0.5-0.4,0.9-0.9,0.9
			H74.4c-0.5,0-0.9,0.4-0.9,0.9v3.8c0,0.5,0.4,0.9,0.9,0.9h49.8c0.5,0,0.9-0.4,0.9-0.9v-3.8c0-0.5-0.4-0.9-0.9-0.9h-13.7
			c-0.5,0-0.9-0.4-0.9-0.9v-9h37.5c3.4,0,6.2-2.8,6.2-6.1V64.5C153.3,61.1,150.5,58.4,147.2,58.4z M98.4,127.6
			c1.5,0,2.8,1.2,2.8,2.8c0,1.5-1.2,2.8-2.8,2.8c-1.5,0-2.8-1.2-2.8-2.8C95.7,128.8,96.9,127.6,98.4,127.6z"/>
		<path class="st0" d="M67.2,88.5H32c-2.2,0-4,1.8-4,4v58c0,2.2,1.8,4,4,4h35.3c2.2,0,4-1.8,4-4v-58C71.2,90.3,69.4,88.5,67.2,88.5
			L67.2,88.5z M45.2,92.5h8.7c0.4,0,0.8,0.3,0.8,0.8c0,0.4-0.3,0.8-0.8,0.8h-8.7c-0.4,0-0.8-0.3-0.8-0.8
			C44.5,92.9,44.8,92.5,45.2,92.5L45.2,92.5z M49.5,151.6c-1.1,0-2.1-0.9-2.1-2.1c0-1.1,0.9-2.1,2.1-2.1c1.1,0,2.1,0.9,2.1,2.1
			C51.6,150.7,50.7,151.6,49.5,151.6L49.5,151.6z M67.8,145.6c0,0.5-0.4,1-0.9,1H32.4c-0.5,0-0.9-0.4-0.9-1V97.4c0-0.5,0.4-1,0.9-1
			h34.5c0.5,0,0.9,0.4,0.9,1V145.6z M67.8,145.6"/>
		<g>
			<rect x="55.3" y="88.5" class="st0" width="6.2" height="7.8"/>
			<path class="st0" d="M119.3,68.7h-63c-0.6,0-1,0.5-1,1v17.3h6.2V74.8h52.7v36.9L100,97.1c-0.2-0.2-0.4-0.2-0.6,0l-9.8,8.7
				L77,90.2c-0.1-0.1-0.2-0.2-0.3-0.2c-0.1,0-0.3,0.1-0.3,0.2l-3.6,4.8v25h46.6c0.6,0,1-0.5,1-1V69.7
				C120.4,69.1,119.9,68.7,119.3,68.7z"/>
		</g>
		<path class="st0" d="M98.6,91.2c3.1,0,5.6-2.5,5.6-5.6c0-3.1-2.5-5.6-5.6-5.6c-3.1,0-5.6,2.5-5.6,5.6C93,88.7,95.5,91.2,98.6,91.2
			L98.6,91.2z M98.6,91.2"/>
	</g>
	<rect x="125.2" y="76.2" class="st0" width="18.2" height="3.6"/>
	<rect x="125.2" y="84.5" class="st0" width="18.2" height="3.6"/>
	<rect x="125.2" y="92.8" class="st0" width="18.2" height="3.6"/>
	<rect x="125.2" y="101.1" class="st0" width="18.2" height="3.6"/>
	<rect x="125.2" y="109.3" class="st0" width="18.2" height="3.6"/>
	<g>
		<path class="st0" d="M64.3,100.3H35.2c-0.3,0-0.5,0.2-0.5,0.5v22.8c0,0.3,0.2,0.5,0.5,0.5h29.1c0.3,0,0.5-0.2,0.5-0.5v-22.8
			C64.8,100.5,64.6,100.3,64.3,100.3L64.3,100.3z M61.9,120.2l-6.5-6.8c-0.1-0.1-0.2-0.1-0.3,0l-4.5,4l-5.8-7.1c0,0-0.1-0.1-0.2-0.1
			c-0.1,0-0.1,0-0.2,0.1l-6.9,9.2v-16.3h24.3V120.2z M61.9,120.2"/>
		<path class="st0" d="M54.7,110c1.3,0,2.3-1,2.3-2.3c0-1.3-1-2.3-2.3-2.3c-1.3,0-2.3,1-2.3,2.3C52.4,109,53.4,110,54.7,110
			L54.7,110z M54.7,110"/>
	</g>
	<rect x="35.5" y="127.1" class="st0" width="29.2" height="2.4"/>
	<rect x="35.5" y="131.5" class="st0" width="29.2" height="2.4"/>
	<rect x="35.5" y="135.8" class="st0" width="29.2" height="2.4"/>
	<rect x="35.5" y="140.2" class="st0" width="29.2" height="2.4"/>
</g>
</svg>
