<?xml version="1.0" encoding="utf-8"?>
<!-- Generator: Adobe Illustrator 22.1.0, SVG Export Plug-In . SVG Version: 6.00 Build 0)  -->
<svg version="1.1" id="Layer_1" xmlns="http://www.w3.org/2000/svg" xmlns:xlink="http://www.w3.org/1999/xlink" x="0px" y="0px"
	 viewBox="0 0 228.8 228.8" style="enable-background:new 0 0 228.8 228.8;" xml:space="preserve">
<style type="text/css">
	.st0{fill:#FFFFFF;}
</style>
<g>
	<g>
		<g>
			<path class="st0" d="M175,58.1H53.2c-4.2,0-7.7,3.4-7.7,7.7v20.1c0,2.7,0,6.3,0,8h5.8c0-2.6,0-5.3,0-8v-20c0-1,0.9-1.9,1.9-1.9
				H175c1,0,1.9,0.9,1.9,1.9v75.1H90c0,0-2.7,0-8,0v17.3c4.3,0,8.1,0,8.1,0H102v11.2c0,0.6-0.5,1.1-1.1,1.1H84.1
				c-0.6,0-1.1,0.5-1.1,1.1v4.8c0,0.6,0.5,1.1,1.1,1.1h62.2c0.6,0,1.1-0.5,1.1-1.1v-4.8c0-0.6-0.5-1.1-1.1-1.1h-17.1
				c-0.6,0-1.1-0.5-1.1-1.1v-11.2H175c4.2,0,7.7-3.4,7.7-7.7V65.8C182.7,61.5,179.3,58.1,175,58.1z M114.1,144.6
				c1.9,0,3.5,1.6,3.5,3.5c0,1.9-1.6,3.5-3.5,3.5c-1.9,0-3.5-1.6-3.5-3.5C110.7,146.1,112.2,144.6,114.1,144.6z"/>
			<path class="st0" d="M75.1,95.7H31.1c-2.7,0-5,2.2-5,5v72.4c0,2.7,2.2,5,5,5h44.1c2.7,0,5-2.2,5-5v-72.4
				C80.1,98,77.9,95.7,75.1,95.7L75.1,95.7z M47.7,100.8h10.9c0.5,0,0.9,0.4,0.9,0.9c0,0.5-0.4,0.9-0.9,0.9H47.7
				c-0.5,0-0.9-0.4-0.9-0.9C46.7,101.2,47.1,100.8,47.7,100.8L47.7,100.8z M53,174.6c-1.4,0-2.6-1.1-2.6-2.6c0-1.4,1.1-2.6,2.6-2.6
				c1.4,0,2.6,1.2,2.6,2.6C55.6,173.5,54.4,174.6,53,174.6L53,174.6z M75.8,167.1c0,0.7-0.5,1.2-1.2,1.2H31.5
				c-0.6,0-1.2-0.5-1.2-1.2v-60.2c0-0.7,0.5-1.2,1.2-1.2h43.1c0.6,0,1.2,0.5,1.2,1.2V167.1z M75.8,167.1"/>
			<g>
				<rect x="60.2" y="95.7" class="st0" width="7.7" height="9.8"/>
				<path class="st0" d="M140.3,70.9H61.5c-0.7,0-1.3,0.6-1.3,1.3v21.6h7.7V78.7h65.9v46.2l-17.7-18.4c-0.2-0.2-0.5-0.2-0.7,0
					l-12.3,10.8L87.3,97.9c-0.1-0.1-0.3-0.2-0.4-0.2c-0.2,0-0.3,0.1-0.4,0.2l-4.5,6v31.2h58.2c0.7,0,1.3-0.6,1.3-1.3V72.2
					C141.6,71.5,141,70.9,140.3,70.9z"/>
			</g>
			<path class="st0" d="M114.3,99.1c3.9,0,7-3.1,7-7c0-3.9-3.1-7-7-7c-3.9,0-7,3.1-7,7C107.3,95.9,110.4,99.1,114.3,99.1L114.3,99.1
				z M114.3,99.1"/>
		</g>
		<rect x="147.6" y="80.3" class="st0" width="22.7" height="4.4"/>
		<rect x="147.6" y="90.7" class="st0" width="22.7" height="4.4"/>
		<rect x="147.6" y="101.1" class="st0" width="22.7" height="4.4"/>
		<rect x="147.6" y="111.4" class="st0" width="22.7" height="4.4"/>
		<rect x="147.6" y="121.8" class="st0" width="22.7" height="4.4"/>
		<g>
			<path class="st0" d="M71.5,110.4H35.1c-0.3,0-0.6,0.3-0.6,0.6v28.4c0,0.3,0.3,0.6,0.6,0.6h36.4c0.3,0,0.6-0.3,0.6-0.6V111
				C72.1,110.7,71.8,110.4,71.5,110.4L71.5,110.4z M68.5,135.3l-8.2-8.5c-0.1-0.1-0.2-0.1-0.3,0l-5.7,5l-7.3-8.9
				c0-0.1-0.1-0.1-0.2-0.1c-0.1,0-0.1,0-0.2,0.1l-8.6,11.5V114h30.4V135.3z M68.5,135.3"/>
			<path class="st0" d="M59.5,122.6c1.6,0,2.9-1.3,2.9-2.9c0-1.6-1.3-2.9-2.9-2.9c-1.6,0-2.9,1.3-2.9,2.9
				C56.6,121.3,57.9,122.6,59.5,122.6L59.5,122.6z M59.5,122.6"/>
		</g>
		<rect x="35.5" y="144" class="st0" width="36.5" height="3"/>
		<rect x="35.5" y="149.4" class="st0" width="36.5" height="3"/>
		<rect x="35.5" y="154.9" class="st0" width="36.5" height="3"/>
		<rect x="35.5" y="160.3" class="st0" width="36.5" height="3"/>
	</g>
	<g>
		<path class="st0" d="M23.6,123.9l-9.4-9.4l9.4-9.4v-3.9c0-4.1,3.4-7.5,7.5-7.5H35l7.6-7.6V71.8L0,114.4L23.6,138V123.9z"/>
		<path class="st0" d="M185.6,71.2v14.1l29.1,29.1l-29.1,29.1v4.6c0,6.9-5.6,12.5-12.5,12.5h-4.6l-54.1,54.1l-35.3-35.3
			c-1.2,0.7-2.5,1.2-4,1.2h-8.9l48.2,48.2l114.4-114.4L185.6,71.2z"/>
	</g>
	<g>
		<polygon class="st0" points="72,55.6 113.4,14.1 154.9,55.6 169,55.6 113.4,0 57.8,55.6"/>
	</g>
</g>
</svg>
